<mxfile host="app.diagrams.net" modified="2022-12-12T18:52:31.172Z" agent="5.0 (X11)" version="20.6.2" etag="sTpg_Cl5UlvlCdcBD-J7" type="github">
  <diagram id="5LaRnQ_jjQv89N18LEYX" name="Page-1">
    <mxGraphModel dx="4951" dy="1647" grid="1" gridSize="12" guides="1" tooltips="1" connect="1" arrows="1" fold="1" page="1" pageScale="1" pageWidth="827" pageHeight="1169" math="0" shadow="0">
      <root>
        <mxCell id="0" />
        <mxCell id="1" parent="0" />
        <mxCell id="828h7A7VIKrgQUYBRV7N-1" value="&lt;font style=&quot;font-size: 40px;&quot;&gt;&lt;b&gt;X(tk)&lt;/b&gt;&lt;/font&gt;" style="shape=cube;whiteSpace=wrap;html=1;boundedLbl=1;backgroundOutline=1;darkOpacity=0.05;darkOpacity2=0.1;fillColor=#0050ef;strokeColor=#001DBC;fontColor=#ffffff;" vertex="1" parent="1">
          <mxGeometry x="-382" y="159.5" width="120" height="80" as="geometry" />
        </mxCell>
        <mxCell id="828h7A7VIKrgQUYBRV7N-193" value="" style="group" vertex="1" connectable="0" parent="1">
          <mxGeometry x="218" y="24.5" width="460" height="600" as="geometry" />
        </mxCell>
        <mxCell id="828h7A7VIKrgQUYBRV7N-71" value="" style="group" vertex="1" connectable="0" parent="828h7A7VIKrgQUYBRV7N-193">
          <mxGeometry width="450" height="600" as="geometry" />
        </mxCell>
        <mxCell id="828h7A7VIKrgQUYBRV7N-135" value="" style="group" vertex="1" connectable="0" parent="828h7A7VIKrgQUYBRV7N-71">
          <mxGeometry x="40" width="410" height="600" as="geometry" />
        </mxCell>
        <mxCell id="828h7A7VIKrgQUYBRV7N-72" value="" style="rounded=0;whiteSpace=wrap;html=1;" vertex="1" parent="828h7A7VIKrgQUYBRV7N-135">
          <mxGeometry width="340" height="600" as="geometry" />
        </mxCell>
        <mxCell id="828h7A7VIKrgQUYBRV7N-74" value="" style="group" vertex="1" connectable="0" parent="828h7A7VIKrgQUYBRV7N-135">
          <mxGeometry y="30" width="410" height="530" as="geometry" />
        </mxCell>
        <mxCell id="828h7A7VIKrgQUYBRV7N-75" value="" style="shape=cube;whiteSpace=wrap;html=1;boundedLbl=1;backgroundOutline=1;darkOpacity=0.05;darkOpacity2=0.1;" vertex="1" parent="828h7A7VIKrgQUYBRV7N-74">
          <mxGeometry x="70" y="240" width="70" height="80" as="geometry" />
        </mxCell>
        <mxCell id="828h7A7VIKrgQUYBRV7N-76" value="" style="shape=cube;whiteSpace=wrap;html=1;boundedLbl=1;backgroundOutline=1;darkOpacity=0.05;darkOpacity2=0.1;" vertex="1" parent="828h7A7VIKrgQUYBRV7N-74">
          <mxGeometry x="70" y="180" width="70" height="80" as="geometry" />
        </mxCell>
        <mxCell id="828h7A7VIKrgQUYBRV7N-77" value="" style="shape=cube;whiteSpace=wrap;html=1;boundedLbl=1;backgroundOutline=1;darkOpacity=0.05;darkOpacity2=0.1;" vertex="1" parent="828h7A7VIKrgQUYBRV7N-74">
          <mxGeometry x="70" y="120" width="70" height="80" as="geometry" />
        </mxCell>
        <mxCell id="828h7A7VIKrgQUYBRV7N-78" value="ReLu()" style="ellipse;whiteSpace=wrap;html=1;aspect=fixed;" vertex="1" parent="828h7A7VIKrgQUYBRV7N-74">
          <mxGeometry x="200" y="20" width="60" height="60" as="geometry" />
        </mxCell>
        <mxCell id="828h7A7VIKrgQUYBRV7N-79" value="" style="shape=cube;whiteSpace=wrap;html=1;boundedLbl=1;backgroundOutline=1;darkOpacity=0.05;darkOpacity2=0.1;" vertex="1" parent="828h7A7VIKrgQUYBRV7N-74">
          <mxGeometry x="70" y="60" width="70" height="80" as="geometry" />
        </mxCell>
        <mxCell id="828h7A7VIKrgQUYBRV7N-80" value="" style="shape=cube;whiteSpace=wrap;html=1;boundedLbl=1;backgroundOutline=1;darkOpacity=0.05;darkOpacity2=0.1;" vertex="1" parent="828h7A7VIKrgQUYBRV7N-74">
          <mxGeometry x="70" width="70" height="80" as="geometry" />
        </mxCell>
        <mxCell id="828h7A7VIKrgQUYBRV7N-81" value="" style="endArrow=classic;html=1;rounded=0;entryX=0;entryY=0.375;entryDx=0;entryDy=0;entryPerimeter=0;" edge="1" parent="828h7A7VIKrgQUYBRV7N-74" target="828h7A7VIKrgQUYBRV7N-80">
          <mxGeometry width="50" height="50" relative="1" as="geometry">
            <mxPoint y="150" as="sourcePoint" />
            <mxPoint x="60" y="40" as="targetPoint" />
          </mxGeometry>
        </mxCell>
        <mxCell id="828h7A7VIKrgQUYBRV7N-82" value="" style="endArrow=classic;html=1;rounded=0;entryX=0;entryY=0;entryDx=0;entryDy=30;entryPerimeter=0;" edge="1" parent="828h7A7VIKrgQUYBRV7N-74" target="828h7A7VIKrgQUYBRV7N-79">
          <mxGeometry width="50" height="50" relative="1" as="geometry">
            <mxPoint y="150" as="sourcePoint" />
            <mxPoint x="70" y="50" as="targetPoint" />
          </mxGeometry>
        </mxCell>
        <mxCell id="828h7A7VIKrgQUYBRV7N-83" value="ReLu()" style="ellipse;whiteSpace=wrap;html=1;aspect=fixed;" vertex="1" parent="828h7A7VIKrgQUYBRV7N-74">
          <mxGeometry x="200" y="80" width="60" height="60" as="geometry" />
        </mxCell>
        <mxCell id="828h7A7VIKrgQUYBRV7N-84" value="ReLu()" style="ellipse;whiteSpace=wrap;html=1;aspect=fixed;" vertex="1" parent="828h7A7VIKrgQUYBRV7N-74">
          <mxGeometry x="200" y="140" width="60" height="60" as="geometry" />
        </mxCell>
        <mxCell id="828h7A7VIKrgQUYBRV7N-85" value="ReLu()" style="ellipse;whiteSpace=wrap;html=1;aspect=fixed;" vertex="1" parent="828h7A7VIKrgQUYBRV7N-74">
          <mxGeometry x="200" y="200" width="60" height="60" as="geometry" />
        </mxCell>
        <mxCell id="828h7A7VIKrgQUYBRV7N-86" value="ReLu()" style="ellipse;whiteSpace=wrap;html=1;aspect=fixed;" vertex="1" parent="828h7A7VIKrgQUYBRV7N-74">
          <mxGeometry x="200" y="260" width="60" height="60" as="geometry" />
        </mxCell>
        <mxCell id="828h7A7VIKrgQUYBRV7N-87" value="" style="endArrow=none;html=1;rounded=0;" edge="1" parent="828h7A7VIKrgQUYBRV7N-74">
          <mxGeometry width="50" height="50" relative="1" as="geometry">
            <mxPoint x="45" y="95" as="sourcePoint" />
            <mxPoint x="35" y="75" as="targetPoint" />
          </mxGeometry>
        </mxCell>
        <mxCell id="828h7A7VIKrgQUYBRV7N-88" value="" style="endArrow=none;html=1;rounded=0;" edge="1" parent="828h7A7VIKrgQUYBRV7N-74">
          <mxGeometry width="50" height="50" relative="1" as="geometry">
            <mxPoint x="40" y="130" as="sourcePoint" />
            <mxPoint x="30" y="110" as="targetPoint" />
          </mxGeometry>
        </mxCell>
        <mxCell id="828h7A7VIKrgQUYBRV7N-89" value="" style="endArrow=none;html=1;rounded=0;" edge="1" parent="828h7A7VIKrgQUYBRV7N-74">
          <mxGeometry width="50" height="50" relative="1" as="geometry">
            <mxPoint x="39.670000000000016" y="160" as="sourcePoint" />
            <mxPoint x="39.670000000000016" y="140" as="targetPoint" />
          </mxGeometry>
        </mxCell>
        <mxCell id="828h7A7VIKrgQUYBRV7N-90" value="" style="endArrow=none;html=1;rounded=0;" edge="1" parent="828h7A7VIKrgQUYBRV7N-74">
          <mxGeometry width="50" height="50" relative="1" as="geometry">
            <mxPoint x="35" y="200" as="sourcePoint" />
            <mxPoint x="45" y="180" as="targetPoint" />
            <Array as="points">
              <mxPoint x="45" y="180" />
            </Array>
          </mxGeometry>
        </mxCell>
        <mxCell id="828h7A7VIKrgQUYBRV7N-91" value="" style="endArrow=none;html=1;rounded=0;" edge="1" parent="828h7A7VIKrgQUYBRV7N-74">
          <mxGeometry width="50" height="50" relative="1" as="geometry">
            <mxPoint x="40" y="240" as="sourcePoint" />
            <mxPoint x="60" y="220" as="targetPoint" />
          </mxGeometry>
        </mxCell>
        <mxCell id="828h7A7VIKrgQUYBRV7N-97" value="" style="endArrow=classic;html=1;rounded=0;entryX=0;entryY=0.5;entryDx=0;entryDy=0;" edge="1" parent="828h7A7VIKrgQUYBRV7N-74" target="828h7A7VIKrgQUYBRV7N-86">
          <mxGeometry width="50" height="50" relative="1" as="geometry">
            <mxPoint x="140" y="289.58000000000004" as="sourcePoint" />
            <mxPoint x="190" y="289.58000000000004" as="targetPoint" />
          </mxGeometry>
        </mxCell>
        <mxCell id="828h7A7VIKrgQUYBRV7N-98" value="" style="endArrow=classic;html=1;rounded=0;entryX=0;entryY=0.5;entryDx=0;entryDy=0;" edge="1" parent="828h7A7VIKrgQUYBRV7N-74">
          <mxGeometry width="50" height="50" relative="1" as="geometry">
            <mxPoint x="140" y="229.16999999999996" as="sourcePoint" />
            <mxPoint x="199.9999999999868" y="229.59000000000015" as="targetPoint" />
          </mxGeometry>
        </mxCell>
        <mxCell id="828h7A7VIKrgQUYBRV7N-99" value="" style="endArrow=classic;html=1;rounded=0;entryX=0;entryY=0.5;entryDx=0;entryDy=0;" edge="1" parent="828h7A7VIKrgQUYBRV7N-74">
          <mxGeometry width="50" height="50" relative="1" as="geometry">
            <mxPoint x="140" y="169.57999999999993" as="sourcePoint" />
            <mxPoint x="199.9999999999868" y="170.0000000000001" as="targetPoint" />
          </mxGeometry>
        </mxCell>
        <mxCell id="828h7A7VIKrgQUYBRV7N-100" value="" style="endArrow=classic;html=1;rounded=0;entryX=0;entryY=0.5;entryDx=0;entryDy=0;" edge="1" parent="828h7A7VIKrgQUYBRV7N-74">
          <mxGeometry width="50" height="50" relative="1" as="geometry">
            <mxPoint x="140" y="109.57999999999993" as="sourcePoint" />
            <mxPoint x="199.9999999999868" y="110.00000000000011" as="targetPoint" />
          </mxGeometry>
        </mxCell>
        <mxCell id="828h7A7VIKrgQUYBRV7N-101" value="" style="endArrow=classic;html=1;rounded=0;entryX=0;entryY=0.5;entryDx=0;entryDy=0;" edge="1" parent="828h7A7VIKrgQUYBRV7N-74">
          <mxGeometry width="50" height="50" relative="1" as="geometry">
            <mxPoint x="140" y="49.1699999999999" as="sourcePoint" />
            <mxPoint x="199.9999999999868" y="49.59000000000009" as="targetPoint" />
          </mxGeometry>
        </mxCell>
        <mxCell id="828h7A7VIKrgQUYBRV7N-102" value="" style="endArrow=classic;html=1;rounded=0;" edge="1" parent="828h7A7VIKrgQUYBRV7N-74">
          <mxGeometry width="50" height="50" relative="1" as="geometry">
            <mxPoint x="260" y="50" as="sourcePoint" />
            <mxPoint x="320" y="50" as="targetPoint" />
          </mxGeometry>
        </mxCell>
        <mxCell id="828h7A7VIKrgQUYBRV7N-103" value="" style="endArrow=classic;html=1;rounded=0;" edge="1" parent="828h7A7VIKrgQUYBRV7N-74">
          <mxGeometry width="50" height="50" relative="1" as="geometry">
            <mxPoint x="260" y="110" as="sourcePoint" />
            <mxPoint x="320" y="110" as="targetPoint" />
          </mxGeometry>
        </mxCell>
        <mxCell id="828h7A7VIKrgQUYBRV7N-104" value="" style="endArrow=classic;html=1;rounded=0;" edge="1" parent="828h7A7VIKrgQUYBRV7N-74">
          <mxGeometry width="50" height="50" relative="1" as="geometry">
            <mxPoint x="260" y="170" as="sourcePoint" />
            <mxPoint x="320" y="170" as="targetPoint" />
          </mxGeometry>
        </mxCell>
        <mxCell id="828h7A7VIKrgQUYBRV7N-105" value="" style="endArrow=classic;html=1;rounded=0;" edge="1" parent="828h7A7VIKrgQUYBRV7N-74">
          <mxGeometry width="50" height="50" relative="1" as="geometry">
            <mxPoint x="260" y="230" as="sourcePoint" />
            <mxPoint x="320" y="230" as="targetPoint" />
          </mxGeometry>
        </mxCell>
        <mxCell id="828h7A7VIKrgQUYBRV7N-106" value="" style="endArrow=classic;html=1;rounded=0;" edge="1" parent="828h7A7VIKrgQUYBRV7N-74">
          <mxGeometry width="50" height="50" relative="1" as="geometry">
            <mxPoint x="260" y="290" as="sourcePoint" />
            <mxPoint x="320" y="290" as="targetPoint" />
          </mxGeometry>
        </mxCell>
        <mxCell id="828h7A7VIKrgQUYBRV7N-107" value="" style="endArrow=none;html=1;rounded=0;" edge="1" parent="828h7A7VIKrgQUYBRV7N-74">
          <mxGeometry width="50" height="50" relative="1" as="geometry">
            <mxPoint x="370" y="170" as="sourcePoint" />
            <mxPoint x="390" y="130" as="targetPoint" />
          </mxGeometry>
        </mxCell>
        <mxCell id="828h7A7VIKrgQUYBRV7N-109" value="" style="endArrow=none;html=1;rounded=0;" edge="1" parent="828h7A7VIKrgQUYBRV7N-74">
          <mxGeometry width="50" height="50" relative="1" as="geometry">
            <mxPoint x="320" as="sourcePoint" />
            <mxPoint x="320" y="530" as="targetPoint" />
          </mxGeometry>
        </mxCell>
        <mxCell id="828h7A7VIKrgQUYBRV7N-110" value="" style="shape=cube;whiteSpace=wrap;html=1;boundedLbl=1;backgroundOutline=1;darkOpacity=0.05;darkOpacity2=0.1;" vertex="1" parent="828h7A7VIKrgQUYBRV7N-74">
          <mxGeometry x="70" y="440" width="70" height="80" as="geometry" />
        </mxCell>
        <mxCell id="828h7A7VIKrgQUYBRV7N-111" value="" style="shape=cube;whiteSpace=wrap;html=1;boundedLbl=1;backgroundOutline=1;darkOpacity=0.05;darkOpacity2=0.1;" vertex="1" parent="828h7A7VIKrgQUYBRV7N-74">
          <mxGeometry x="70" y="380" width="70" height="80" as="geometry" />
        </mxCell>
        <mxCell id="828h7A7VIKrgQUYBRV7N-112" value="" style="endArrow=none;dashed=1;html=1;dashPattern=1 3;strokeWidth=2;rounded=0;" edge="1" parent="828h7A7VIKrgQUYBRV7N-74">
          <mxGeometry width="50" height="50" relative="1" as="geometry">
            <mxPoint x="105" y="360" as="sourcePoint" />
            <mxPoint x="104.88" y="340" as="targetPoint" />
            <Array as="points">
              <mxPoint x="104.88" y="350" />
            </Array>
          </mxGeometry>
        </mxCell>
        <mxCell id="828h7A7VIKrgQUYBRV7N-113" value="" style="endArrow=classic;html=1;rounded=0;entryX=0.005;entryY=0.477;entryDx=0;entryDy=0;entryPerimeter=0;" edge="1" parent="828h7A7VIKrgQUYBRV7N-74" target="828h7A7VIKrgQUYBRV7N-111">
          <mxGeometry width="50" height="50" relative="1" as="geometry">
            <mxPoint y="150" as="sourcePoint" />
            <mxPoint x="-20" y="320" as="targetPoint" />
          </mxGeometry>
        </mxCell>
        <mxCell id="828h7A7VIKrgQUYBRV7N-114" value="" style="endArrow=none;html=1;rounded=0;" edge="1" parent="828h7A7VIKrgQUYBRV7N-74">
          <mxGeometry width="50" height="50" relative="1" as="geometry">
            <mxPoint x="30" y="320" as="sourcePoint" />
            <mxPoint x="60" y="300" as="targetPoint" />
          </mxGeometry>
        </mxCell>
        <mxCell id="828h7A7VIKrgQUYBRV7N-115" value="" style="endArrow=classic;html=1;rounded=0;entryX=-0.003;entryY=0.448;entryDx=0;entryDy=0;entryPerimeter=0;" edge="1" parent="828h7A7VIKrgQUYBRV7N-74" target="828h7A7VIKrgQUYBRV7N-110">
          <mxGeometry width="50" height="50" relative="1" as="geometry">
            <mxPoint y="150" as="sourcePoint" />
            <mxPoint x="-30" y="390" as="targetPoint" />
          </mxGeometry>
        </mxCell>
        <mxCell id="828h7A7VIKrgQUYBRV7N-116" value="" style="endArrow=none;html=1;rounded=0;" edge="1" parent="828h7A7VIKrgQUYBRV7N-74">
          <mxGeometry width="50" height="50" relative="1" as="geometry">
            <mxPoint x="30" y="380" as="sourcePoint" />
            <mxPoint x="60" y="360" as="targetPoint" />
          </mxGeometry>
        </mxCell>
        <mxCell id="828h7A7VIKrgQUYBRV7N-119" value="ReLu()" style="ellipse;whiteSpace=wrap;html=1;aspect=fixed;" vertex="1" parent="828h7A7VIKrgQUYBRV7N-74">
          <mxGeometry x="200" y="400" width="60" height="60" as="geometry" />
        </mxCell>
        <mxCell id="828h7A7VIKrgQUYBRV7N-120" value="ReLu()" style="ellipse;whiteSpace=wrap;html=1;aspect=fixed;" vertex="1" parent="828h7A7VIKrgQUYBRV7N-74">
          <mxGeometry x="200" y="460" width="60" height="60" as="geometry" />
        </mxCell>
        <mxCell id="828h7A7VIKrgQUYBRV7N-121" value="" style="endArrow=classic;html=1;rounded=0;entryX=0;entryY=0.5;entryDx=0;entryDy=0;" edge="1" parent="828h7A7VIKrgQUYBRV7N-74">
          <mxGeometry width="50" height="50" relative="1" as="geometry">
            <mxPoint x="140" y="429.76000000000005" as="sourcePoint" />
            <mxPoint x="199.99999999999613" y="430.18" as="targetPoint" />
          </mxGeometry>
        </mxCell>
        <mxCell id="828h7A7VIKrgQUYBRV7N-122" value="" style="endArrow=classic;html=1;rounded=0;entryX=0;entryY=0.5;entryDx=0;entryDy=0;" edge="1" parent="828h7A7VIKrgQUYBRV7N-74">
          <mxGeometry width="50" height="50" relative="1" as="geometry">
            <mxPoint x="140" y="489.76" as="sourcePoint" />
            <mxPoint x="199.99999999999613" y="490.18000000000006" as="targetPoint" />
          </mxGeometry>
        </mxCell>
        <mxCell id="828h7A7VIKrgQUYBRV7N-123" value="" style="endArrow=classic;html=1;rounded=0;entryX=0;entryY=0.5;entryDx=0;entryDy=0;" edge="1" parent="828h7A7VIKrgQUYBRV7N-74">
          <mxGeometry width="50" height="50" relative="1" as="geometry">
            <mxPoint x="260" y="429.71" as="sourcePoint" />
            <mxPoint x="319.9999999999959" y="430.13000000000005" as="targetPoint" />
          </mxGeometry>
        </mxCell>
        <mxCell id="828h7A7VIKrgQUYBRV7N-124" value="" style="endArrow=classic;html=1;rounded=0;" edge="1" parent="828h7A7VIKrgQUYBRV7N-74">
          <mxGeometry width="50" height="50" relative="1" as="geometry">
            <mxPoint x="260" y="489.71000000000004" as="sourcePoint" />
            <mxPoint x="320" y="489.71000000000004" as="targetPoint" />
          </mxGeometry>
        </mxCell>
        <mxCell id="828h7A7VIKrgQUYBRV7N-125" value="" style="endArrow=classic;html=1;rounded=0;entryX=0;entryY=0.488;entryDx=0;entryDy=0;entryPerimeter=0;exitX=0.002;exitY=0.3;exitDx=0;exitDy=0;exitPerimeter=0;" edge="1" parent="828h7A7VIKrgQUYBRV7N-135" source="828h7A7VIKrgQUYBRV7N-72" target="828h7A7VIKrgQUYBRV7N-75">
          <mxGeometry width="50" height="50" relative="1" as="geometry">
            <mxPoint x="120" y="240" as="sourcePoint" />
            <mxPoint x="206.01000000000022" y="258" as="targetPoint" />
          </mxGeometry>
        </mxCell>
        <mxCell id="828h7A7VIKrgQUYBRV7N-126" value="" style="endArrow=classic;html=1;rounded=0;entryX=-0.057;entryY=0.475;entryDx=0;entryDy=0;entryPerimeter=0;exitX=0.003;exitY=0.3;exitDx=0;exitDy=0;exitPerimeter=0;" edge="1" parent="828h7A7VIKrgQUYBRV7N-135" source="828h7A7VIKrgQUYBRV7N-72" target="828h7A7VIKrgQUYBRV7N-76">
          <mxGeometry width="50" height="50" relative="1" as="geometry">
            <mxPoint x="140" y="210" as="sourcePoint" />
            <mxPoint x="210" y="144" as="targetPoint" />
          </mxGeometry>
        </mxCell>
        <mxCell id="828h7A7VIKrgQUYBRV7N-127" value="" style="endArrow=classic;html=1;rounded=0;entryX=0;entryY=0;entryDx=0;entryDy=30;entryPerimeter=0;exitX=0;exitY=0.3;exitDx=0;exitDy=0;exitPerimeter=0;" edge="1" parent="828h7A7VIKrgQUYBRV7N-135" source="828h7A7VIKrgQUYBRV7N-72" target="828h7A7VIKrgQUYBRV7N-77">
          <mxGeometry width="50" height="50" relative="1" as="geometry">
            <mxPoint x="130" y="240" as="sourcePoint" />
            <mxPoint x="210" y="144" as="targetPoint" />
          </mxGeometry>
        </mxCell>
        <mxCell id="828h7A7VIKrgQUYBRV7N-108" value="" style="endArrow=classic;html=1;rounded=0;" edge="1" parent="828h7A7VIKrgQUYBRV7N-193">
          <mxGeometry width="50" height="50" relative="1" as="geometry">
            <mxPoint x="360" y="180" as="sourcePoint" />
            <mxPoint x="460" y="180" as="targetPoint" />
          </mxGeometry>
        </mxCell>
        <mxCell id="828h7A7VIKrgQUYBRV7N-194" value="" style="group" vertex="1" connectable="0" parent="1">
          <mxGeometry x="638" y="24.5" width="460" height="600" as="geometry" />
        </mxCell>
        <mxCell id="828h7A7VIKrgQUYBRV7N-195" value="" style="group" vertex="1" connectable="0" parent="828h7A7VIKrgQUYBRV7N-194">
          <mxGeometry width="450" height="600" as="geometry" />
        </mxCell>
        <mxCell id="828h7A7VIKrgQUYBRV7N-196" value="" style="group" vertex="1" connectable="0" parent="828h7A7VIKrgQUYBRV7N-195">
          <mxGeometry x="40" width="410" height="600" as="geometry" />
        </mxCell>
        <mxCell id="828h7A7VIKrgQUYBRV7N-197" value="" style="rounded=0;whiteSpace=wrap;html=1;" vertex="1" parent="828h7A7VIKrgQUYBRV7N-196">
          <mxGeometry width="340" height="600" as="geometry" />
        </mxCell>
        <mxCell id="828h7A7VIKrgQUYBRV7N-198" value="" style="group" vertex="1" connectable="0" parent="828h7A7VIKrgQUYBRV7N-196">
          <mxGeometry y="30" width="410" height="530" as="geometry" />
        </mxCell>
        <mxCell id="828h7A7VIKrgQUYBRV7N-199" value="" style="shape=cube;whiteSpace=wrap;html=1;boundedLbl=1;backgroundOutline=1;darkOpacity=0.05;darkOpacity2=0.1;" vertex="1" parent="828h7A7VIKrgQUYBRV7N-198">
          <mxGeometry x="70" y="240" width="70" height="80" as="geometry" />
        </mxCell>
        <mxCell id="828h7A7VIKrgQUYBRV7N-200" value="" style="shape=cube;whiteSpace=wrap;html=1;boundedLbl=1;backgroundOutline=1;darkOpacity=0.05;darkOpacity2=0.1;" vertex="1" parent="828h7A7VIKrgQUYBRV7N-198">
          <mxGeometry x="70" y="180" width="70" height="80" as="geometry" />
        </mxCell>
        <mxCell id="828h7A7VIKrgQUYBRV7N-201" value="" style="shape=cube;whiteSpace=wrap;html=1;boundedLbl=1;backgroundOutline=1;darkOpacity=0.05;darkOpacity2=0.1;" vertex="1" parent="828h7A7VIKrgQUYBRV7N-198">
          <mxGeometry x="70" y="120" width="70" height="80" as="geometry" />
        </mxCell>
        <mxCell id="828h7A7VIKrgQUYBRV7N-202" value="ReLu()" style="ellipse;whiteSpace=wrap;html=1;aspect=fixed;" vertex="1" parent="828h7A7VIKrgQUYBRV7N-198">
          <mxGeometry x="200" y="20" width="60" height="60" as="geometry" />
        </mxCell>
        <mxCell id="828h7A7VIKrgQUYBRV7N-203" value="" style="shape=cube;whiteSpace=wrap;html=1;boundedLbl=1;backgroundOutline=1;darkOpacity=0.05;darkOpacity2=0.1;" vertex="1" parent="828h7A7VIKrgQUYBRV7N-198">
          <mxGeometry x="70" y="60" width="70" height="80" as="geometry" />
        </mxCell>
        <mxCell id="828h7A7VIKrgQUYBRV7N-204" value="" style="shape=cube;whiteSpace=wrap;html=1;boundedLbl=1;backgroundOutline=1;darkOpacity=0.05;darkOpacity2=0.1;" vertex="1" parent="828h7A7VIKrgQUYBRV7N-198">
          <mxGeometry x="70" width="70" height="80" as="geometry" />
        </mxCell>
        <mxCell id="828h7A7VIKrgQUYBRV7N-205" value="" style="endArrow=classic;html=1;rounded=0;entryX=0;entryY=0.375;entryDx=0;entryDy=0;entryPerimeter=0;" edge="1" parent="828h7A7VIKrgQUYBRV7N-198" target="828h7A7VIKrgQUYBRV7N-204">
          <mxGeometry width="50" height="50" relative="1" as="geometry">
            <mxPoint y="150" as="sourcePoint" />
            <mxPoint x="60" y="40" as="targetPoint" />
          </mxGeometry>
        </mxCell>
        <mxCell id="828h7A7VIKrgQUYBRV7N-206" value="" style="endArrow=classic;html=1;rounded=0;entryX=0;entryY=0;entryDx=0;entryDy=30;entryPerimeter=0;" edge="1" parent="828h7A7VIKrgQUYBRV7N-198" target="828h7A7VIKrgQUYBRV7N-203">
          <mxGeometry width="50" height="50" relative="1" as="geometry">
            <mxPoint y="150" as="sourcePoint" />
            <mxPoint x="70" y="50" as="targetPoint" />
          </mxGeometry>
        </mxCell>
        <mxCell id="828h7A7VIKrgQUYBRV7N-207" value="ReLu()" style="ellipse;whiteSpace=wrap;html=1;aspect=fixed;" vertex="1" parent="828h7A7VIKrgQUYBRV7N-198">
          <mxGeometry x="200" y="80" width="60" height="60" as="geometry" />
        </mxCell>
        <mxCell id="828h7A7VIKrgQUYBRV7N-208" value="ReLu()" style="ellipse;whiteSpace=wrap;html=1;aspect=fixed;" vertex="1" parent="828h7A7VIKrgQUYBRV7N-198">
          <mxGeometry x="200" y="140" width="60" height="60" as="geometry" />
        </mxCell>
        <mxCell id="828h7A7VIKrgQUYBRV7N-209" value="ReLu()" style="ellipse;whiteSpace=wrap;html=1;aspect=fixed;" vertex="1" parent="828h7A7VIKrgQUYBRV7N-198">
          <mxGeometry x="200" y="200" width="60" height="60" as="geometry" />
        </mxCell>
        <mxCell id="828h7A7VIKrgQUYBRV7N-210" value="ReLu()" style="ellipse;whiteSpace=wrap;html=1;aspect=fixed;" vertex="1" parent="828h7A7VIKrgQUYBRV7N-198">
          <mxGeometry x="200" y="260" width="60" height="60" as="geometry" />
        </mxCell>
        <mxCell id="828h7A7VIKrgQUYBRV7N-211" value="" style="endArrow=none;html=1;rounded=0;" edge="1" parent="828h7A7VIKrgQUYBRV7N-198">
          <mxGeometry width="50" height="50" relative="1" as="geometry">
            <mxPoint x="45" y="95" as="sourcePoint" />
            <mxPoint x="35" y="75" as="targetPoint" />
          </mxGeometry>
        </mxCell>
        <mxCell id="828h7A7VIKrgQUYBRV7N-212" value="" style="endArrow=none;html=1;rounded=0;" edge="1" parent="828h7A7VIKrgQUYBRV7N-198">
          <mxGeometry width="50" height="50" relative="1" as="geometry">
            <mxPoint x="40" y="130" as="sourcePoint" />
            <mxPoint x="30" y="110" as="targetPoint" />
          </mxGeometry>
        </mxCell>
        <mxCell id="828h7A7VIKrgQUYBRV7N-213" value="" style="endArrow=none;html=1;rounded=0;" edge="1" parent="828h7A7VIKrgQUYBRV7N-198">
          <mxGeometry width="50" height="50" relative="1" as="geometry">
            <mxPoint x="39.670000000000016" y="160" as="sourcePoint" />
            <mxPoint x="39.670000000000016" y="140" as="targetPoint" />
          </mxGeometry>
        </mxCell>
        <mxCell id="828h7A7VIKrgQUYBRV7N-214" value="" style="endArrow=none;html=1;rounded=0;" edge="1" parent="828h7A7VIKrgQUYBRV7N-198">
          <mxGeometry width="50" height="50" relative="1" as="geometry">
            <mxPoint x="35" y="200" as="sourcePoint" />
            <mxPoint x="45" y="180" as="targetPoint" />
            <Array as="points">
              <mxPoint x="45" y="180" />
            </Array>
          </mxGeometry>
        </mxCell>
        <mxCell id="828h7A7VIKrgQUYBRV7N-215" value="" style="endArrow=none;html=1;rounded=0;" edge="1" parent="828h7A7VIKrgQUYBRV7N-198">
          <mxGeometry width="50" height="50" relative="1" as="geometry">
            <mxPoint x="40" y="240" as="sourcePoint" />
            <mxPoint x="60" y="220" as="targetPoint" />
          </mxGeometry>
        </mxCell>
        <mxCell id="828h7A7VIKrgQUYBRV7N-221" value="" style="endArrow=classic;html=1;rounded=0;entryX=0;entryY=0.5;entryDx=0;entryDy=0;" edge="1" parent="828h7A7VIKrgQUYBRV7N-198" target="828h7A7VIKrgQUYBRV7N-210">
          <mxGeometry width="50" height="50" relative="1" as="geometry">
            <mxPoint x="140" y="289.58000000000004" as="sourcePoint" />
            <mxPoint x="190" y="289.58000000000004" as="targetPoint" />
          </mxGeometry>
        </mxCell>
        <mxCell id="828h7A7VIKrgQUYBRV7N-222" value="" style="endArrow=classic;html=1;rounded=0;entryX=0;entryY=0.5;entryDx=0;entryDy=0;" edge="1" parent="828h7A7VIKrgQUYBRV7N-198">
          <mxGeometry width="50" height="50" relative="1" as="geometry">
            <mxPoint x="140" y="229.16999999999996" as="sourcePoint" />
            <mxPoint x="199.9999999999868" y="229.59000000000015" as="targetPoint" />
          </mxGeometry>
        </mxCell>
        <mxCell id="828h7A7VIKrgQUYBRV7N-223" value="" style="endArrow=classic;html=1;rounded=0;entryX=0;entryY=0.5;entryDx=0;entryDy=0;" edge="1" parent="828h7A7VIKrgQUYBRV7N-198">
          <mxGeometry width="50" height="50" relative="1" as="geometry">
            <mxPoint x="140" y="169.57999999999993" as="sourcePoint" />
            <mxPoint x="199.9999999999868" y="170.0000000000001" as="targetPoint" />
          </mxGeometry>
        </mxCell>
        <mxCell id="828h7A7VIKrgQUYBRV7N-224" value="" style="endArrow=classic;html=1;rounded=0;entryX=0;entryY=0.5;entryDx=0;entryDy=0;" edge="1" parent="828h7A7VIKrgQUYBRV7N-198">
          <mxGeometry width="50" height="50" relative="1" as="geometry">
            <mxPoint x="140" y="109.57999999999993" as="sourcePoint" />
            <mxPoint x="199.9999999999868" y="110.00000000000011" as="targetPoint" />
          </mxGeometry>
        </mxCell>
        <mxCell id="828h7A7VIKrgQUYBRV7N-225" value="" style="endArrow=classic;html=1;rounded=0;entryX=0;entryY=0.5;entryDx=0;entryDy=0;" edge="1" parent="828h7A7VIKrgQUYBRV7N-198">
          <mxGeometry width="50" height="50" relative="1" as="geometry">
            <mxPoint x="140" y="49.1699999999999" as="sourcePoint" />
            <mxPoint x="199.9999999999868" y="49.59000000000009" as="targetPoint" />
          </mxGeometry>
        </mxCell>
        <mxCell id="828h7A7VIKrgQUYBRV7N-226" value="" style="endArrow=classic;html=1;rounded=0;" edge="1" parent="828h7A7VIKrgQUYBRV7N-198">
          <mxGeometry width="50" height="50" relative="1" as="geometry">
            <mxPoint x="260" y="50" as="sourcePoint" />
            <mxPoint x="320" y="50" as="targetPoint" />
          </mxGeometry>
        </mxCell>
        <mxCell id="828h7A7VIKrgQUYBRV7N-227" value="" style="endArrow=classic;html=1;rounded=0;" edge="1" parent="828h7A7VIKrgQUYBRV7N-198">
          <mxGeometry width="50" height="50" relative="1" as="geometry">
            <mxPoint x="260" y="110" as="sourcePoint" />
            <mxPoint x="320" y="110" as="targetPoint" />
          </mxGeometry>
        </mxCell>
        <mxCell id="828h7A7VIKrgQUYBRV7N-228" value="" style="endArrow=classic;html=1;rounded=0;" edge="1" parent="828h7A7VIKrgQUYBRV7N-198">
          <mxGeometry width="50" height="50" relative="1" as="geometry">
            <mxPoint x="260" y="170" as="sourcePoint" />
            <mxPoint x="320" y="170" as="targetPoint" />
          </mxGeometry>
        </mxCell>
        <mxCell id="828h7A7VIKrgQUYBRV7N-229" value="" style="endArrow=classic;html=1;rounded=0;" edge="1" parent="828h7A7VIKrgQUYBRV7N-198">
          <mxGeometry width="50" height="50" relative="1" as="geometry">
            <mxPoint x="260" y="230" as="sourcePoint" />
            <mxPoint x="320" y="230" as="targetPoint" />
          </mxGeometry>
        </mxCell>
        <mxCell id="828h7A7VIKrgQUYBRV7N-230" value="" style="endArrow=classic;html=1;rounded=0;" edge="1" parent="828h7A7VIKrgQUYBRV7N-198">
          <mxGeometry width="50" height="50" relative="1" as="geometry">
            <mxPoint x="260" y="290" as="sourcePoint" />
            <mxPoint x="320" y="290" as="targetPoint" />
          </mxGeometry>
        </mxCell>
        <mxCell id="828h7A7VIKrgQUYBRV7N-231" value="" style="endArrow=none;html=1;rounded=0;" edge="1" parent="828h7A7VIKrgQUYBRV7N-198">
          <mxGeometry width="50" height="50" relative="1" as="geometry">
            <mxPoint x="370" y="170" as="sourcePoint" />
            <mxPoint x="390" y="130" as="targetPoint" />
          </mxGeometry>
        </mxCell>
        <mxCell id="828h7A7VIKrgQUYBRV7N-232" value="" style="endArrow=none;html=1;rounded=0;" edge="1" parent="828h7A7VIKrgQUYBRV7N-198">
          <mxGeometry width="50" height="50" relative="1" as="geometry">
            <mxPoint x="320" as="sourcePoint" />
            <mxPoint x="320" y="530" as="targetPoint" />
          </mxGeometry>
        </mxCell>
        <mxCell id="828h7A7VIKrgQUYBRV7N-233" value="" style="shape=cube;whiteSpace=wrap;html=1;boundedLbl=1;backgroundOutline=1;darkOpacity=0.05;darkOpacity2=0.1;" vertex="1" parent="828h7A7VIKrgQUYBRV7N-198">
          <mxGeometry x="70" y="440" width="70" height="80" as="geometry" />
        </mxCell>
        <mxCell id="828h7A7VIKrgQUYBRV7N-234" value="" style="shape=cube;whiteSpace=wrap;html=1;boundedLbl=1;backgroundOutline=1;darkOpacity=0.05;darkOpacity2=0.1;" vertex="1" parent="828h7A7VIKrgQUYBRV7N-198">
          <mxGeometry x="70" y="380" width="70" height="80" as="geometry" />
        </mxCell>
        <mxCell id="828h7A7VIKrgQUYBRV7N-235" value="" style="endArrow=none;dashed=1;html=1;dashPattern=1 3;strokeWidth=2;rounded=0;" edge="1" parent="828h7A7VIKrgQUYBRV7N-198">
          <mxGeometry width="50" height="50" relative="1" as="geometry">
            <mxPoint x="105" y="360" as="sourcePoint" />
            <mxPoint x="104.88" y="340" as="targetPoint" />
            <Array as="points">
              <mxPoint x="104.88" y="350" />
            </Array>
          </mxGeometry>
        </mxCell>
        <mxCell id="828h7A7VIKrgQUYBRV7N-236" value="" style="endArrow=classic;html=1;rounded=0;entryX=0.005;entryY=0.477;entryDx=0;entryDy=0;entryPerimeter=0;" edge="1" parent="828h7A7VIKrgQUYBRV7N-198" target="828h7A7VIKrgQUYBRV7N-234">
          <mxGeometry width="50" height="50" relative="1" as="geometry">
            <mxPoint y="150" as="sourcePoint" />
            <mxPoint x="-20" y="320" as="targetPoint" />
          </mxGeometry>
        </mxCell>
        <mxCell id="828h7A7VIKrgQUYBRV7N-237" value="" style="endArrow=none;html=1;rounded=0;" edge="1" parent="828h7A7VIKrgQUYBRV7N-198">
          <mxGeometry width="50" height="50" relative="1" as="geometry">
            <mxPoint x="30" y="320" as="sourcePoint" />
            <mxPoint x="60" y="300" as="targetPoint" />
          </mxGeometry>
        </mxCell>
        <mxCell id="828h7A7VIKrgQUYBRV7N-238" value="" style="endArrow=classic;html=1;rounded=0;entryX=-0.003;entryY=0.448;entryDx=0;entryDy=0;entryPerimeter=0;" edge="1" parent="828h7A7VIKrgQUYBRV7N-198" target="828h7A7VIKrgQUYBRV7N-233">
          <mxGeometry width="50" height="50" relative="1" as="geometry">
            <mxPoint y="150" as="sourcePoint" />
            <mxPoint x="-30" y="390" as="targetPoint" />
          </mxGeometry>
        </mxCell>
        <mxCell id="828h7A7VIKrgQUYBRV7N-239" value="" style="endArrow=none;html=1;rounded=0;" edge="1" parent="828h7A7VIKrgQUYBRV7N-198">
          <mxGeometry width="50" height="50" relative="1" as="geometry">
            <mxPoint x="30" y="380" as="sourcePoint" />
            <mxPoint x="60" y="360" as="targetPoint" />
          </mxGeometry>
        </mxCell>
        <mxCell id="828h7A7VIKrgQUYBRV7N-242" value="ReLu()" style="ellipse;whiteSpace=wrap;html=1;aspect=fixed;" vertex="1" parent="828h7A7VIKrgQUYBRV7N-198">
          <mxGeometry x="200" y="400" width="60" height="60" as="geometry" />
        </mxCell>
        <mxCell id="828h7A7VIKrgQUYBRV7N-243" value="ReLu()" style="ellipse;whiteSpace=wrap;html=1;aspect=fixed;" vertex="1" parent="828h7A7VIKrgQUYBRV7N-198">
          <mxGeometry x="200" y="460" width="60" height="60" as="geometry" />
        </mxCell>
        <mxCell id="828h7A7VIKrgQUYBRV7N-244" value="" style="endArrow=classic;html=1;rounded=0;entryX=0;entryY=0.5;entryDx=0;entryDy=0;" edge="1" parent="828h7A7VIKrgQUYBRV7N-198">
          <mxGeometry width="50" height="50" relative="1" as="geometry">
            <mxPoint x="140" y="429.76000000000005" as="sourcePoint" />
            <mxPoint x="199.99999999999613" y="430.18" as="targetPoint" />
          </mxGeometry>
        </mxCell>
        <mxCell id="828h7A7VIKrgQUYBRV7N-245" value="" style="endArrow=classic;html=1;rounded=0;entryX=0;entryY=0.5;entryDx=0;entryDy=0;" edge="1" parent="828h7A7VIKrgQUYBRV7N-198">
          <mxGeometry width="50" height="50" relative="1" as="geometry">
            <mxPoint x="140" y="489.76" as="sourcePoint" />
            <mxPoint x="199.99999999999613" y="490.18000000000006" as="targetPoint" />
          </mxGeometry>
        </mxCell>
        <mxCell id="828h7A7VIKrgQUYBRV7N-246" value="" style="endArrow=classic;html=1;rounded=0;entryX=0;entryY=0.5;entryDx=0;entryDy=0;" edge="1" parent="828h7A7VIKrgQUYBRV7N-198">
          <mxGeometry width="50" height="50" relative="1" as="geometry">
            <mxPoint x="260" y="429.71" as="sourcePoint" />
            <mxPoint x="319.9999999999959" y="430.13000000000005" as="targetPoint" />
          </mxGeometry>
        </mxCell>
        <mxCell id="828h7A7VIKrgQUYBRV7N-247" value="" style="endArrow=classic;html=1;rounded=0;" edge="1" parent="828h7A7VIKrgQUYBRV7N-198">
          <mxGeometry width="50" height="50" relative="1" as="geometry">
            <mxPoint x="260" y="489.71000000000004" as="sourcePoint" />
            <mxPoint x="320" y="489.71000000000004" as="targetPoint" />
          </mxGeometry>
        </mxCell>
        <mxCell id="828h7A7VIKrgQUYBRV7N-248" value="" style="endArrow=classic;html=1;rounded=0;entryX=0;entryY=0.488;entryDx=0;entryDy=0;entryPerimeter=0;exitX=0.002;exitY=0.3;exitDx=0;exitDy=0;exitPerimeter=0;" edge="1" parent="828h7A7VIKrgQUYBRV7N-196" source="828h7A7VIKrgQUYBRV7N-197" target="828h7A7VIKrgQUYBRV7N-199">
          <mxGeometry width="50" height="50" relative="1" as="geometry">
            <mxPoint x="120" y="240" as="sourcePoint" />
            <mxPoint x="206.01000000000022" y="258" as="targetPoint" />
          </mxGeometry>
        </mxCell>
        <mxCell id="828h7A7VIKrgQUYBRV7N-249" value="" style="endArrow=classic;html=1;rounded=0;entryX=-0.057;entryY=0.475;entryDx=0;entryDy=0;entryPerimeter=0;exitX=0.003;exitY=0.3;exitDx=0;exitDy=0;exitPerimeter=0;" edge="1" parent="828h7A7VIKrgQUYBRV7N-196" source="828h7A7VIKrgQUYBRV7N-197" target="828h7A7VIKrgQUYBRV7N-200">
          <mxGeometry width="50" height="50" relative="1" as="geometry">
            <mxPoint x="140" y="210" as="sourcePoint" />
            <mxPoint x="210" y="144" as="targetPoint" />
          </mxGeometry>
        </mxCell>
        <mxCell id="828h7A7VIKrgQUYBRV7N-250" value="" style="endArrow=classic;html=1;rounded=0;entryX=0;entryY=0;entryDx=0;entryDy=30;entryPerimeter=0;exitX=0;exitY=0.3;exitDx=0;exitDy=0;exitPerimeter=0;" edge="1" parent="828h7A7VIKrgQUYBRV7N-196" source="828h7A7VIKrgQUYBRV7N-197" target="828h7A7VIKrgQUYBRV7N-201">
          <mxGeometry width="50" height="50" relative="1" as="geometry">
            <mxPoint x="130" y="240" as="sourcePoint" />
            <mxPoint x="210" y="144" as="targetPoint" />
          </mxGeometry>
        </mxCell>
        <mxCell id="828h7A7VIKrgQUYBRV7N-251" value="" style="endArrow=classic;html=1;rounded=0;" edge="1" parent="828h7A7VIKrgQUYBRV7N-194">
          <mxGeometry width="50" height="50" relative="1" as="geometry">
            <mxPoint x="360" y="180" as="sourcePoint" />
            <mxPoint x="460" y="180" as="targetPoint" />
          </mxGeometry>
        </mxCell>
        <mxCell id="828h7A7VIKrgQUYBRV7N-252" value="" style="endArrow=none;dashed=1;html=1;dashPattern=1 3;strokeWidth=2;rounded=0;" edge="1" parent="1">
          <mxGeometry width="50" height="50" relative="1" as="geometry">
            <mxPoint x="1168" y="204.5" as="sourcePoint" />
            <mxPoint x="1198" y="204.5" as="targetPoint" />
          </mxGeometry>
        </mxCell>
        <mxCell id="828h7A7VIKrgQUYBRV7N-253" value="" style="group" vertex="1" connectable="0" parent="1">
          <mxGeometry x="1288" y="34.5" width="460" height="600" as="geometry" />
        </mxCell>
        <mxCell id="828h7A7VIKrgQUYBRV7N-254" value="" style="group" vertex="1" connectable="0" parent="828h7A7VIKrgQUYBRV7N-253">
          <mxGeometry width="450" height="600" as="geometry" />
        </mxCell>
        <mxCell id="828h7A7VIKrgQUYBRV7N-255" value="" style="group" vertex="1" connectable="0" parent="828h7A7VIKrgQUYBRV7N-254">
          <mxGeometry x="34" y="-10" width="410" height="600" as="geometry" />
        </mxCell>
        <mxCell id="828h7A7VIKrgQUYBRV7N-256" value="" style="rounded=0;whiteSpace=wrap;html=1;" vertex="1" parent="828h7A7VIKrgQUYBRV7N-255">
          <mxGeometry width="340" height="600" as="geometry" />
        </mxCell>
        <mxCell id="828h7A7VIKrgQUYBRV7N-257" value="" style="group" vertex="1" connectable="0" parent="828h7A7VIKrgQUYBRV7N-255">
          <mxGeometry y="30" width="410" height="530" as="geometry" />
        </mxCell>
        <mxCell id="828h7A7VIKrgQUYBRV7N-258" value="" style="shape=cube;whiteSpace=wrap;html=1;boundedLbl=1;backgroundOutline=1;darkOpacity=0.05;darkOpacity2=0.1;" vertex="1" parent="828h7A7VIKrgQUYBRV7N-257">
          <mxGeometry x="70" y="240" width="70" height="80" as="geometry" />
        </mxCell>
        <mxCell id="828h7A7VIKrgQUYBRV7N-259" value="" style="shape=cube;whiteSpace=wrap;html=1;boundedLbl=1;backgroundOutline=1;darkOpacity=0.05;darkOpacity2=0.1;" vertex="1" parent="828h7A7VIKrgQUYBRV7N-257">
          <mxGeometry x="70" y="180" width="70" height="80" as="geometry" />
        </mxCell>
        <mxCell id="828h7A7VIKrgQUYBRV7N-260" value="" style="shape=cube;whiteSpace=wrap;html=1;boundedLbl=1;backgroundOutline=1;darkOpacity=0.05;darkOpacity2=0.1;" vertex="1" parent="828h7A7VIKrgQUYBRV7N-257">
          <mxGeometry x="70" y="120" width="70" height="80" as="geometry" />
        </mxCell>
        <mxCell id="828h7A7VIKrgQUYBRV7N-261" value="ReLu()" style="ellipse;whiteSpace=wrap;html=1;aspect=fixed;" vertex="1" parent="828h7A7VIKrgQUYBRV7N-257">
          <mxGeometry x="200" y="20" width="60" height="60" as="geometry" />
        </mxCell>
        <mxCell id="828h7A7VIKrgQUYBRV7N-262" value="" style="shape=cube;whiteSpace=wrap;html=1;boundedLbl=1;backgroundOutline=1;darkOpacity=0.05;darkOpacity2=0.1;" vertex="1" parent="828h7A7VIKrgQUYBRV7N-257">
          <mxGeometry x="70" y="60" width="70" height="80" as="geometry" />
        </mxCell>
        <mxCell id="828h7A7VIKrgQUYBRV7N-263" value="" style="shape=cube;whiteSpace=wrap;html=1;boundedLbl=1;backgroundOutline=1;darkOpacity=0.05;darkOpacity2=0.1;" vertex="1" parent="828h7A7VIKrgQUYBRV7N-257">
          <mxGeometry x="70" width="70" height="80" as="geometry" />
        </mxCell>
        <mxCell id="828h7A7VIKrgQUYBRV7N-264" value="" style="endArrow=classic;html=1;rounded=0;entryX=0;entryY=0.375;entryDx=0;entryDy=0;entryPerimeter=0;" edge="1" parent="828h7A7VIKrgQUYBRV7N-257" target="828h7A7VIKrgQUYBRV7N-263">
          <mxGeometry width="50" height="50" relative="1" as="geometry">
            <mxPoint y="150" as="sourcePoint" />
            <mxPoint x="60" y="40" as="targetPoint" />
          </mxGeometry>
        </mxCell>
        <mxCell id="828h7A7VIKrgQUYBRV7N-265" value="" style="endArrow=classic;html=1;rounded=0;entryX=0;entryY=0;entryDx=0;entryDy=30;entryPerimeter=0;" edge="1" parent="828h7A7VIKrgQUYBRV7N-257" target="828h7A7VIKrgQUYBRV7N-262">
          <mxGeometry width="50" height="50" relative="1" as="geometry">
            <mxPoint y="150" as="sourcePoint" />
            <mxPoint x="70" y="50" as="targetPoint" />
          </mxGeometry>
        </mxCell>
        <mxCell id="828h7A7VIKrgQUYBRV7N-266" value="ReLu()" style="ellipse;whiteSpace=wrap;html=1;aspect=fixed;" vertex="1" parent="828h7A7VIKrgQUYBRV7N-257">
          <mxGeometry x="200" y="80" width="60" height="60" as="geometry" />
        </mxCell>
        <mxCell id="828h7A7VIKrgQUYBRV7N-267" value="ReLu()" style="ellipse;whiteSpace=wrap;html=1;aspect=fixed;" vertex="1" parent="828h7A7VIKrgQUYBRV7N-257">
          <mxGeometry x="200" y="140" width="60" height="60" as="geometry" />
        </mxCell>
        <mxCell id="828h7A7VIKrgQUYBRV7N-268" value="ReLu()" style="ellipse;whiteSpace=wrap;html=1;aspect=fixed;" vertex="1" parent="828h7A7VIKrgQUYBRV7N-257">
          <mxGeometry x="200" y="200" width="60" height="60" as="geometry" />
        </mxCell>
        <mxCell id="828h7A7VIKrgQUYBRV7N-269" value="ReLu()" style="ellipse;whiteSpace=wrap;html=1;aspect=fixed;" vertex="1" parent="828h7A7VIKrgQUYBRV7N-257">
          <mxGeometry x="200" y="260" width="60" height="60" as="geometry" />
        </mxCell>
        <mxCell id="828h7A7VIKrgQUYBRV7N-270" value="" style="endArrow=none;html=1;rounded=0;" edge="1" parent="828h7A7VIKrgQUYBRV7N-257">
          <mxGeometry width="50" height="50" relative="1" as="geometry">
            <mxPoint x="45" y="95" as="sourcePoint" />
            <mxPoint x="35" y="75" as="targetPoint" />
          </mxGeometry>
        </mxCell>
        <mxCell id="828h7A7VIKrgQUYBRV7N-271" value="" style="endArrow=none;html=1;rounded=0;" edge="1" parent="828h7A7VIKrgQUYBRV7N-257">
          <mxGeometry width="50" height="50" relative="1" as="geometry">
            <mxPoint x="40" y="130" as="sourcePoint" />
            <mxPoint x="30" y="110" as="targetPoint" />
          </mxGeometry>
        </mxCell>
        <mxCell id="828h7A7VIKrgQUYBRV7N-272" value="" style="endArrow=none;html=1;rounded=0;" edge="1" parent="828h7A7VIKrgQUYBRV7N-257">
          <mxGeometry width="50" height="50" relative="1" as="geometry">
            <mxPoint x="39.670000000000016" y="160" as="sourcePoint" />
            <mxPoint x="39.670000000000016" y="140" as="targetPoint" />
          </mxGeometry>
        </mxCell>
        <mxCell id="828h7A7VIKrgQUYBRV7N-273" value="" style="endArrow=none;html=1;rounded=0;" edge="1" parent="828h7A7VIKrgQUYBRV7N-257">
          <mxGeometry width="50" height="50" relative="1" as="geometry">
            <mxPoint x="35" y="200" as="sourcePoint" />
            <mxPoint x="45" y="180" as="targetPoint" />
            <Array as="points">
              <mxPoint x="45" y="180" />
            </Array>
          </mxGeometry>
        </mxCell>
        <mxCell id="828h7A7VIKrgQUYBRV7N-274" value="" style="endArrow=none;html=1;rounded=0;" edge="1" parent="828h7A7VIKrgQUYBRV7N-257">
          <mxGeometry width="50" height="50" relative="1" as="geometry">
            <mxPoint x="40" y="240" as="sourcePoint" />
            <mxPoint x="60" y="220" as="targetPoint" />
          </mxGeometry>
        </mxCell>
        <mxCell id="828h7A7VIKrgQUYBRV7N-275" value="17" style="text;html=1;align=center;verticalAlign=middle;resizable=0;points=[];autosize=1;strokeColor=none;fillColor=none;" vertex="1" parent="828h7A7VIKrgQUYBRV7N-257">
          <mxGeometry x="20" y="50" width="40" height="30" as="geometry" />
        </mxCell>
        <mxCell id="828h7A7VIKrgQUYBRV7N-276" value="17" style="text;html=1;align=center;verticalAlign=middle;resizable=0;points=[];autosize=1;strokeColor=none;fillColor=none;" vertex="1" parent="828h7A7VIKrgQUYBRV7N-257">
          <mxGeometry x="30" y="130" width="40" height="30" as="geometry" />
        </mxCell>
        <mxCell id="828h7A7VIKrgQUYBRV7N-277" value="17" style="text;html=1;align=center;verticalAlign=middle;resizable=0;points=[];autosize=1;strokeColor=none;fillColor=none;" vertex="1" parent="828h7A7VIKrgQUYBRV7N-257">
          <mxGeometry x="20" y="95" width="40" height="30" as="geometry" />
        </mxCell>
        <mxCell id="828h7A7VIKrgQUYBRV7N-278" value="17" style="text;html=1;align=center;verticalAlign=middle;resizable=0;points=[];autosize=1;strokeColor=none;fillColor=none;" vertex="1" parent="828h7A7VIKrgQUYBRV7N-257">
          <mxGeometry x="30" y="170" width="40" height="30" as="geometry" />
        </mxCell>
        <mxCell id="828h7A7VIKrgQUYBRV7N-279" value="17" style="text;html=1;align=center;verticalAlign=middle;resizable=0;points=[];autosize=1;strokeColor=none;fillColor=none;" vertex="1" parent="828h7A7VIKrgQUYBRV7N-257">
          <mxGeometry x="30" y="205" width="40" height="30" as="geometry" />
        </mxCell>
        <mxCell id="828h7A7VIKrgQUYBRV7N-280" value="" style="endArrow=classic;html=1;rounded=0;entryX=0;entryY=0.5;entryDx=0;entryDy=0;" edge="1" parent="828h7A7VIKrgQUYBRV7N-257" target="828h7A7VIKrgQUYBRV7N-269">
          <mxGeometry width="50" height="50" relative="1" as="geometry">
            <mxPoint x="140" y="289.58000000000004" as="sourcePoint" />
            <mxPoint x="190" y="289.58000000000004" as="targetPoint" />
          </mxGeometry>
        </mxCell>
        <mxCell id="828h7A7VIKrgQUYBRV7N-281" value="" style="endArrow=classic;html=1;rounded=0;entryX=0;entryY=0.5;entryDx=0;entryDy=0;" edge="1" parent="828h7A7VIKrgQUYBRV7N-257">
          <mxGeometry width="50" height="50" relative="1" as="geometry">
            <mxPoint x="140" y="229.16999999999996" as="sourcePoint" />
            <mxPoint x="199.9999999999868" y="229.59000000000015" as="targetPoint" />
          </mxGeometry>
        </mxCell>
        <mxCell id="828h7A7VIKrgQUYBRV7N-282" value="" style="endArrow=classic;html=1;rounded=0;entryX=0;entryY=0.5;entryDx=0;entryDy=0;" edge="1" parent="828h7A7VIKrgQUYBRV7N-257">
          <mxGeometry width="50" height="50" relative="1" as="geometry">
            <mxPoint x="140" y="169.57999999999993" as="sourcePoint" />
            <mxPoint x="199.9999999999868" y="170.0000000000001" as="targetPoint" />
          </mxGeometry>
        </mxCell>
        <mxCell id="828h7A7VIKrgQUYBRV7N-283" value="" style="endArrow=classic;html=1;rounded=0;entryX=0;entryY=0.5;entryDx=0;entryDy=0;" edge="1" parent="828h7A7VIKrgQUYBRV7N-257">
          <mxGeometry width="50" height="50" relative="1" as="geometry">
            <mxPoint x="140" y="109.57999999999993" as="sourcePoint" />
            <mxPoint x="199.9999999999868" y="110.00000000000011" as="targetPoint" />
          </mxGeometry>
        </mxCell>
        <mxCell id="828h7A7VIKrgQUYBRV7N-284" value="" style="endArrow=classic;html=1;rounded=0;entryX=0;entryY=0.5;entryDx=0;entryDy=0;" edge="1" parent="828h7A7VIKrgQUYBRV7N-257">
          <mxGeometry width="50" height="50" relative="1" as="geometry">
            <mxPoint x="140" y="49.1699999999999" as="sourcePoint" />
            <mxPoint x="199.9999999999868" y="49.59000000000009" as="targetPoint" />
          </mxGeometry>
        </mxCell>
        <mxCell id="828h7A7VIKrgQUYBRV7N-285" value="" style="endArrow=classic;html=1;rounded=0;" edge="1" parent="828h7A7VIKrgQUYBRV7N-257">
          <mxGeometry width="50" height="50" relative="1" as="geometry">
            <mxPoint x="260" y="50" as="sourcePoint" />
            <mxPoint x="320" y="50" as="targetPoint" />
          </mxGeometry>
        </mxCell>
        <mxCell id="828h7A7VIKrgQUYBRV7N-286" value="" style="endArrow=classic;html=1;rounded=0;" edge="1" parent="828h7A7VIKrgQUYBRV7N-257">
          <mxGeometry width="50" height="50" relative="1" as="geometry">
            <mxPoint x="260" y="110" as="sourcePoint" />
            <mxPoint x="320" y="110" as="targetPoint" />
          </mxGeometry>
        </mxCell>
        <mxCell id="828h7A7VIKrgQUYBRV7N-287" value="" style="endArrow=classic;html=1;rounded=0;" edge="1" parent="828h7A7VIKrgQUYBRV7N-257">
          <mxGeometry width="50" height="50" relative="1" as="geometry">
            <mxPoint x="260" y="170" as="sourcePoint" />
            <mxPoint x="320" y="170" as="targetPoint" />
          </mxGeometry>
        </mxCell>
        <mxCell id="828h7A7VIKrgQUYBRV7N-288" value="" style="endArrow=classic;html=1;rounded=0;" edge="1" parent="828h7A7VIKrgQUYBRV7N-257">
          <mxGeometry width="50" height="50" relative="1" as="geometry">
            <mxPoint x="260" y="230" as="sourcePoint" />
            <mxPoint x="320" y="230" as="targetPoint" />
          </mxGeometry>
        </mxCell>
        <mxCell id="828h7A7VIKrgQUYBRV7N-289" value="" style="endArrow=classic;html=1;rounded=0;" edge="1" parent="828h7A7VIKrgQUYBRV7N-257">
          <mxGeometry width="50" height="50" relative="1" as="geometry">
            <mxPoint x="260" y="290" as="sourcePoint" />
            <mxPoint x="320" y="290" as="targetPoint" />
          </mxGeometry>
        </mxCell>
        <mxCell id="828h7A7VIKrgQUYBRV7N-290" value="" style="endArrow=none;html=1;rounded=0;" edge="1" parent="828h7A7VIKrgQUYBRV7N-257">
          <mxGeometry width="50" height="50" relative="1" as="geometry">
            <mxPoint x="366" y="180" as="sourcePoint" />
            <mxPoint x="386" y="140" as="targetPoint" />
          </mxGeometry>
        </mxCell>
        <mxCell id="828h7A7VIKrgQUYBRV7N-291" value="" style="endArrow=none;html=1;rounded=0;" edge="1" parent="828h7A7VIKrgQUYBRV7N-257">
          <mxGeometry width="50" height="50" relative="1" as="geometry">
            <mxPoint x="320" as="sourcePoint" />
            <mxPoint x="320" y="530" as="targetPoint" />
          </mxGeometry>
        </mxCell>
        <mxCell id="828h7A7VIKrgQUYBRV7N-292" value="" style="shape=cube;whiteSpace=wrap;html=1;boundedLbl=1;backgroundOutline=1;darkOpacity=0.05;darkOpacity2=0.1;" vertex="1" parent="828h7A7VIKrgQUYBRV7N-257">
          <mxGeometry x="70" y="440" width="70" height="80" as="geometry" />
        </mxCell>
        <mxCell id="828h7A7VIKrgQUYBRV7N-293" value="" style="shape=cube;whiteSpace=wrap;html=1;boundedLbl=1;backgroundOutline=1;darkOpacity=0.05;darkOpacity2=0.1;" vertex="1" parent="828h7A7VIKrgQUYBRV7N-257">
          <mxGeometry x="70" y="380" width="70" height="80" as="geometry" />
        </mxCell>
        <mxCell id="828h7A7VIKrgQUYBRV7N-294" value="" style="endArrow=none;dashed=1;html=1;dashPattern=1 3;strokeWidth=2;rounded=0;" edge="1" parent="828h7A7VIKrgQUYBRV7N-257">
          <mxGeometry width="50" height="50" relative="1" as="geometry">
            <mxPoint x="105" y="360" as="sourcePoint" />
            <mxPoint x="104.88" y="340" as="targetPoint" />
            <Array as="points">
              <mxPoint x="104.88" y="350" />
            </Array>
          </mxGeometry>
        </mxCell>
        <mxCell id="828h7A7VIKrgQUYBRV7N-295" value="" style="endArrow=classic;html=1;rounded=0;entryX=0.005;entryY=0.477;entryDx=0;entryDy=0;entryPerimeter=0;" edge="1" parent="828h7A7VIKrgQUYBRV7N-257" target="828h7A7VIKrgQUYBRV7N-293">
          <mxGeometry width="50" height="50" relative="1" as="geometry">
            <mxPoint y="150" as="sourcePoint" />
            <mxPoint x="-20" y="320" as="targetPoint" />
          </mxGeometry>
        </mxCell>
        <mxCell id="828h7A7VIKrgQUYBRV7N-296" value="" style="endArrow=none;html=1;rounded=0;" edge="1" parent="828h7A7VIKrgQUYBRV7N-257">
          <mxGeometry width="50" height="50" relative="1" as="geometry">
            <mxPoint x="30" y="320" as="sourcePoint" />
            <mxPoint x="60" y="300" as="targetPoint" />
          </mxGeometry>
        </mxCell>
        <mxCell id="828h7A7VIKrgQUYBRV7N-297" value="" style="endArrow=classic;html=1;rounded=0;entryX=-0.003;entryY=0.448;entryDx=0;entryDy=0;entryPerimeter=0;" edge="1" parent="828h7A7VIKrgQUYBRV7N-257" target="828h7A7VIKrgQUYBRV7N-292">
          <mxGeometry width="50" height="50" relative="1" as="geometry">
            <mxPoint y="150" as="sourcePoint" />
            <mxPoint x="-30" y="390" as="targetPoint" />
          </mxGeometry>
        </mxCell>
        <mxCell id="828h7A7VIKrgQUYBRV7N-298" value="" style="endArrow=none;html=1;rounded=0;" edge="1" parent="828h7A7VIKrgQUYBRV7N-257">
          <mxGeometry width="50" height="50" relative="1" as="geometry">
            <mxPoint x="30" y="380" as="sourcePoint" />
            <mxPoint x="60" y="360" as="targetPoint" />
          </mxGeometry>
        </mxCell>
        <mxCell id="828h7A7VIKrgQUYBRV7N-299" value="17" style="text;html=1;align=center;verticalAlign=middle;resizable=0;points=[];autosize=1;strokeColor=none;fillColor=none;" vertex="1" parent="828h7A7VIKrgQUYBRV7N-257">
          <mxGeometry x="30" y="275" width="40" height="30" as="geometry" />
        </mxCell>
        <mxCell id="828h7A7VIKrgQUYBRV7N-300" value="17" style="text;html=1;align=center;verticalAlign=middle;resizable=0;points=[];autosize=1;strokeColor=none;fillColor=none;" vertex="1" parent="828h7A7VIKrgQUYBRV7N-257">
          <mxGeometry x="10" y="350" width="40" height="30" as="geometry" />
        </mxCell>
        <mxCell id="828h7A7VIKrgQUYBRV7N-301" value="ReLu()" style="ellipse;whiteSpace=wrap;html=1;aspect=fixed;" vertex="1" parent="828h7A7VIKrgQUYBRV7N-257">
          <mxGeometry x="200" y="400" width="60" height="60" as="geometry" />
        </mxCell>
        <mxCell id="828h7A7VIKrgQUYBRV7N-302" value="ReLu()" style="ellipse;whiteSpace=wrap;html=1;aspect=fixed;" vertex="1" parent="828h7A7VIKrgQUYBRV7N-257">
          <mxGeometry x="200" y="460" width="60" height="60" as="geometry" />
        </mxCell>
        <mxCell id="828h7A7VIKrgQUYBRV7N-303" value="" style="endArrow=classic;html=1;rounded=0;entryX=0;entryY=0.5;entryDx=0;entryDy=0;" edge="1" parent="828h7A7VIKrgQUYBRV7N-257">
          <mxGeometry width="50" height="50" relative="1" as="geometry">
            <mxPoint x="140" y="429.76000000000005" as="sourcePoint" />
            <mxPoint x="199.99999999999613" y="430.18" as="targetPoint" />
          </mxGeometry>
        </mxCell>
        <mxCell id="828h7A7VIKrgQUYBRV7N-304" value="" style="endArrow=classic;html=1;rounded=0;entryX=0;entryY=0.5;entryDx=0;entryDy=0;" edge="1" parent="828h7A7VIKrgQUYBRV7N-257">
          <mxGeometry width="50" height="50" relative="1" as="geometry">
            <mxPoint x="140" y="489.76" as="sourcePoint" />
            <mxPoint x="199.99999999999613" y="490.18000000000006" as="targetPoint" />
          </mxGeometry>
        </mxCell>
        <mxCell id="828h7A7VIKrgQUYBRV7N-305" value="" style="endArrow=classic;html=1;rounded=0;entryX=0;entryY=0.5;entryDx=0;entryDy=0;" edge="1" parent="828h7A7VIKrgQUYBRV7N-257">
          <mxGeometry width="50" height="50" relative="1" as="geometry">
            <mxPoint x="260" y="429.71" as="sourcePoint" />
            <mxPoint x="319.9999999999959" y="430.13000000000005" as="targetPoint" />
          </mxGeometry>
        </mxCell>
        <mxCell id="828h7A7VIKrgQUYBRV7N-306" value="" style="endArrow=classic;html=1;rounded=0;" edge="1" parent="828h7A7VIKrgQUYBRV7N-257">
          <mxGeometry width="50" height="50" relative="1" as="geometry">
            <mxPoint x="260" y="489.71000000000004" as="sourcePoint" />
            <mxPoint x="320" y="489.71000000000004" as="targetPoint" />
          </mxGeometry>
        </mxCell>
        <mxCell id="828h7A7VIKrgQUYBRV7N-307" value="" style="endArrow=classic;html=1;rounded=0;entryX=0;entryY=0.488;entryDx=0;entryDy=0;entryPerimeter=0;exitX=0.002;exitY=0.3;exitDx=0;exitDy=0;exitPerimeter=0;" edge="1" parent="828h7A7VIKrgQUYBRV7N-255" source="828h7A7VIKrgQUYBRV7N-256" target="828h7A7VIKrgQUYBRV7N-258">
          <mxGeometry width="50" height="50" relative="1" as="geometry">
            <mxPoint x="120" y="240" as="sourcePoint" />
            <mxPoint x="206.01000000000022" y="258" as="targetPoint" />
          </mxGeometry>
        </mxCell>
        <mxCell id="828h7A7VIKrgQUYBRV7N-308" value="" style="endArrow=classic;html=1;rounded=0;entryX=-0.057;entryY=0.475;entryDx=0;entryDy=0;entryPerimeter=0;exitX=0.003;exitY=0.3;exitDx=0;exitDy=0;exitPerimeter=0;" edge="1" parent="828h7A7VIKrgQUYBRV7N-255" source="828h7A7VIKrgQUYBRV7N-256" target="828h7A7VIKrgQUYBRV7N-259">
          <mxGeometry width="50" height="50" relative="1" as="geometry">
            <mxPoint x="140" y="210" as="sourcePoint" />
            <mxPoint x="210" y="144" as="targetPoint" />
          </mxGeometry>
        </mxCell>
        <mxCell id="828h7A7VIKrgQUYBRV7N-309" value="" style="endArrow=classic;html=1;rounded=0;entryX=0;entryY=0;entryDx=0;entryDy=30;entryPerimeter=0;exitX=0;exitY=0.3;exitDx=0;exitDy=0;exitPerimeter=0;" edge="1" parent="828h7A7VIKrgQUYBRV7N-255" source="828h7A7VIKrgQUYBRV7N-256" target="828h7A7VIKrgQUYBRV7N-260">
          <mxGeometry width="50" height="50" relative="1" as="geometry">
            <mxPoint x="130" y="240" as="sourcePoint" />
            <mxPoint x="210" y="144" as="targetPoint" />
          </mxGeometry>
        </mxCell>
        <mxCell id="828h7A7VIKrgQUYBRV7N-311" value="" style="endArrow=none;html=1;rounded=0;" edge="1" parent="828h7A7VIKrgQUYBRV7N-254">
          <mxGeometry width="50" height="50" relative="1" as="geometry">
            <mxPoint x="-20" y="190" as="sourcePoint" />
            <mxPoint y="150" as="targetPoint" />
          </mxGeometry>
        </mxCell>
        <mxCell id="828h7A7VIKrgQUYBRV7N-312" value="" style="endArrow=classic;html=1;rounded=0;" edge="1" parent="1">
          <mxGeometry width="50" height="50" relative="1" as="geometry">
            <mxPoint x="1242" y="204.5" as="sourcePoint" />
            <mxPoint x="1322" y="204.5" as="targetPoint" />
          </mxGeometry>
        </mxCell>
        <mxCell id="828h7A7VIKrgQUYBRV7N-69" value="" style="group" vertex="1" connectable="0" parent="1">
          <mxGeometry x="-192" y="24.5" width="450" height="600" as="geometry" />
        </mxCell>
        <mxCell id="828h7A7VIKrgQUYBRV7N-64" value="" style="rounded=0;whiteSpace=wrap;html=1;" vertex="1" parent="828h7A7VIKrgQUYBRV7N-69">
          <mxGeometry x="40" width="340" height="600" as="geometry" />
        </mxCell>
        <mxCell id="828h7A7VIKrgQUYBRV7N-67" value="" style="endArrow=classic;html=1;rounded=0;exitX=1;exitY=0.545;exitDx=0;exitDy=0;exitPerimeter=0;" edge="1" parent="828h7A7VIKrgQUYBRV7N-69" source="828h7A7VIKrgQUYBRV7N-1">
          <mxGeometry width="50" height="50" relative="1" as="geometry">
            <mxPoint y="180" as="sourcePoint" />
            <mxPoint x="40" y="180" as="targetPoint" />
          </mxGeometry>
        </mxCell>
        <mxCell id="828h7A7VIKrgQUYBRV7N-68" value="" style="group" vertex="1" connectable="0" parent="828h7A7VIKrgQUYBRV7N-69">
          <mxGeometry x="40" y="30" width="410" height="530" as="geometry" />
        </mxCell>
        <mxCell id="828h7A7VIKrgQUYBRV7N-7" value="" style="shape=cube;whiteSpace=wrap;html=1;boundedLbl=1;backgroundOutline=1;darkOpacity=0.05;darkOpacity2=0.1;" vertex="1" parent="828h7A7VIKrgQUYBRV7N-68">
          <mxGeometry x="70" y="240" width="70" height="80" as="geometry" />
        </mxCell>
        <mxCell id="828h7A7VIKrgQUYBRV7N-6" value="" style="shape=cube;whiteSpace=wrap;html=1;boundedLbl=1;backgroundOutline=1;darkOpacity=0.05;darkOpacity2=0.1;" vertex="1" parent="828h7A7VIKrgQUYBRV7N-68">
          <mxGeometry x="70" y="180" width="70" height="80" as="geometry" />
        </mxCell>
        <mxCell id="828h7A7VIKrgQUYBRV7N-5" value="" style="shape=cube;whiteSpace=wrap;html=1;boundedLbl=1;backgroundOutline=1;darkOpacity=0.05;darkOpacity2=0.1;" vertex="1" parent="828h7A7VIKrgQUYBRV7N-68">
          <mxGeometry x="70" y="120" width="70" height="80" as="geometry" />
        </mxCell>
        <mxCell id="828h7A7VIKrgQUYBRV7N-3" value="ReLu()" style="ellipse;whiteSpace=wrap;html=1;aspect=fixed;" vertex="1" parent="828h7A7VIKrgQUYBRV7N-68">
          <mxGeometry x="200" y="20" width="60" height="60" as="geometry" />
        </mxCell>
        <mxCell id="828h7A7VIKrgQUYBRV7N-4" value="" style="shape=cube;whiteSpace=wrap;html=1;boundedLbl=1;backgroundOutline=1;darkOpacity=0.05;darkOpacity2=0.1;" vertex="1" parent="828h7A7VIKrgQUYBRV7N-68">
          <mxGeometry x="70" y="60" width="70" height="80" as="geometry" />
        </mxCell>
        <mxCell id="828h7A7VIKrgQUYBRV7N-2" value="" style="shape=cube;whiteSpace=wrap;html=1;boundedLbl=1;backgroundOutline=1;darkOpacity=0.05;darkOpacity2=0.1;" vertex="1" parent="828h7A7VIKrgQUYBRV7N-68">
          <mxGeometry x="70" width="70" height="80" as="geometry" />
        </mxCell>
        <mxCell id="828h7A7VIKrgQUYBRV7N-8" value="" style="endArrow=classic;html=1;rounded=0;entryX=0;entryY=0.375;entryDx=0;entryDy=0;entryPerimeter=0;" edge="1" parent="828h7A7VIKrgQUYBRV7N-68" target="828h7A7VIKrgQUYBRV7N-2">
          <mxGeometry width="50" height="50" relative="1" as="geometry">
            <mxPoint y="150" as="sourcePoint" />
            <mxPoint x="60" y="40" as="targetPoint" />
          </mxGeometry>
        </mxCell>
        <mxCell id="828h7A7VIKrgQUYBRV7N-9" value="" style="endArrow=classic;html=1;rounded=0;entryX=0;entryY=0;entryDx=0;entryDy=30;entryPerimeter=0;" edge="1" parent="828h7A7VIKrgQUYBRV7N-68" target="828h7A7VIKrgQUYBRV7N-4">
          <mxGeometry width="50" height="50" relative="1" as="geometry">
            <mxPoint y="150" as="sourcePoint" />
            <mxPoint x="70" y="50" as="targetPoint" />
          </mxGeometry>
        </mxCell>
        <mxCell id="828h7A7VIKrgQUYBRV7N-15" value="ReLu()" style="ellipse;whiteSpace=wrap;html=1;aspect=fixed;" vertex="1" parent="828h7A7VIKrgQUYBRV7N-68">
          <mxGeometry x="200" y="80" width="60" height="60" as="geometry" />
        </mxCell>
        <mxCell id="828h7A7VIKrgQUYBRV7N-16" value="ReLu()" style="ellipse;whiteSpace=wrap;html=1;aspect=fixed;" vertex="1" parent="828h7A7VIKrgQUYBRV7N-68">
          <mxGeometry x="200" y="140" width="60" height="60" as="geometry" />
        </mxCell>
        <mxCell id="828h7A7VIKrgQUYBRV7N-17" value="ReLu()" style="ellipse;whiteSpace=wrap;html=1;aspect=fixed;" vertex="1" parent="828h7A7VIKrgQUYBRV7N-68">
          <mxGeometry x="200" y="200" width="60" height="60" as="geometry" />
        </mxCell>
        <mxCell id="828h7A7VIKrgQUYBRV7N-18" value="ReLu()" style="ellipse;whiteSpace=wrap;html=1;aspect=fixed;" vertex="1" parent="828h7A7VIKrgQUYBRV7N-68">
          <mxGeometry x="200" y="260" width="60" height="60" as="geometry" />
        </mxCell>
        <mxCell id="828h7A7VIKrgQUYBRV7N-19" value="" style="endArrow=none;html=1;rounded=0;" edge="1" parent="828h7A7VIKrgQUYBRV7N-68">
          <mxGeometry width="50" height="50" relative="1" as="geometry">
            <mxPoint x="45" y="95" as="sourcePoint" />
            <mxPoint x="35" y="75" as="targetPoint" />
          </mxGeometry>
        </mxCell>
        <mxCell id="828h7A7VIKrgQUYBRV7N-21" value="" style="endArrow=none;html=1;rounded=0;" edge="1" parent="828h7A7VIKrgQUYBRV7N-68">
          <mxGeometry width="50" height="50" relative="1" as="geometry">
            <mxPoint x="40" y="130" as="sourcePoint" />
            <mxPoint x="30" y="110" as="targetPoint" />
          </mxGeometry>
        </mxCell>
        <mxCell id="828h7A7VIKrgQUYBRV7N-22" value="" style="endArrow=none;html=1;rounded=0;" edge="1" parent="828h7A7VIKrgQUYBRV7N-68">
          <mxGeometry width="50" height="50" relative="1" as="geometry">
            <mxPoint x="39.670000000000016" y="160" as="sourcePoint" />
            <mxPoint x="39.670000000000016" y="140" as="targetPoint" />
          </mxGeometry>
        </mxCell>
        <mxCell id="828h7A7VIKrgQUYBRV7N-23" value="" style="endArrow=none;html=1;rounded=0;" edge="1" parent="828h7A7VIKrgQUYBRV7N-68">
          <mxGeometry width="50" height="50" relative="1" as="geometry">
            <mxPoint x="35" y="200" as="sourcePoint" />
            <mxPoint x="45" y="180" as="targetPoint" />
            <Array as="points">
              <mxPoint x="45" y="180" />
            </Array>
          </mxGeometry>
        </mxCell>
        <mxCell id="828h7A7VIKrgQUYBRV7N-24" value="" style="endArrow=none;html=1;rounded=0;" edge="1" parent="828h7A7VIKrgQUYBRV7N-68">
          <mxGeometry width="50" height="50" relative="1" as="geometry">
            <mxPoint x="40" y="240" as="sourcePoint" />
            <mxPoint x="60" y="220" as="targetPoint" />
          </mxGeometry>
        </mxCell>
        <mxCell id="828h7A7VIKrgQUYBRV7N-25" value="17" style="text;html=1;align=center;verticalAlign=middle;resizable=0;points=[];autosize=1;strokeColor=none;fillColor=none;" vertex="1" parent="828h7A7VIKrgQUYBRV7N-68">
          <mxGeometry x="20" y="50" width="40" height="30" as="geometry" />
        </mxCell>
        <mxCell id="828h7A7VIKrgQUYBRV7N-26" value="17" style="text;html=1;align=center;verticalAlign=middle;resizable=0;points=[];autosize=1;strokeColor=none;fillColor=none;" vertex="1" parent="828h7A7VIKrgQUYBRV7N-68">
          <mxGeometry x="30" y="130" width="40" height="30" as="geometry" />
        </mxCell>
        <mxCell id="828h7A7VIKrgQUYBRV7N-27" value="17" style="text;html=1;align=center;verticalAlign=middle;resizable=0;points=[];autosize=1;strokeColor=none;fillColor=none;" vertex="1" parent="828h7A7VIKrgQUYBRV7N-68">
          <mxGeometry x="20" y="95" width="40" height="30" as="geometry" />
        </mxCell>
        <mxCell id="828h7A7VIKrgQUYBRV7N-28" value="17" style="text;html=1;align=center;verticalAlign=middle;resizable=0;points=[];autosize=1;strokeColor=none;fillColor=none;" vertex="1" parent="828h7A7VIKrgQUYBRV7N-68">
          <mxGeometry x="30" y="170" width="40" height="30" as="geometry" />
        </mxCell>
        <mxCell id="828h7A7VIKrgQUYBRV7N-29" value="17" style="text;html=1;align=center;verticalAlign=middle;resizable=0;points=[];autosize=1;strokeColor=none;fillColor=none;" vertex="1" parent="828h7A7VIKrgQUYBRV7N-68">
          <mxGeometry x="30" y="205" width="40" height="30" as="geometry" />
        </mxCell>
        <mxCell id="828h7A7VIKrgQUYBRV7N-32" value="" style="endArrow=classic;html=1;rounded=0;entryX=0;entryY=0.5;entryDx=0;entryDy=0;" edge="1" parent="828h7A7VIKrgQUYBRV7N-68" target="828h7A7VIKrgQUYBRV7N-18">
          <mxGeometry width="50" height="50" relative="1" as="geometry">
            <mxPoint x="140" y="289.58000000000004" as="sourcePoint" />
            <mxPoint x="190" y="289.58000000000004" as="targetPoint" />
          </mxGeometry>
        </mxCell>
        <mxCell id="828h7A7VIKrgQUYBRV7N-34" value="" style="endArrow=classic;html=1;rounded=0;entryX=0;entryY=0.5;entryDx=0;entryDy=0;" edge="1" parent="828h7A7VIKrgQUYBRV7N-68">
          <mxGeometry width="50" height="50" relative="1" as="geometry">
            <mxPoint x="140" y="229.16999999999996" as="sourcePoint" />
            <mxPoint x="199.9999999999868" y="229.59000000000015" as="targetPoint" />
          </mxGeometry>
        </mxCell>
        <mxCell id="828h7A7VIKrgQUYBRV7N-35" value="" style="endArrow=classic;html=1;rounded=0;entryX=0;entryY=0.5;entryDx=0;entryDy=0;" edge="1" parent="828h7A7VIKrgQUYBRV7N-68">
          <mxGeometry width="50" height="50" relative="1" as="geometry">
            <mxPoint x="140" y="169.57999999999993" as="sourcePoint" />
            <mxPoint x="199.9999999999868" y="170.0000000000001" as="targetPoint" />
          </mxGeometry>
        </mxCell>
        <mxCell id="828h7A7VIKrgQUYBRV7N-36" value="" style="endArrow=classic;html=1;rounded=0;entryX=0;entryY=0.5;entryDx=0;entryDy=0;" edge="1" parent="828h7A7VIKrgQUYBRV7N-68">
          <mxGeometry width="50" height="50" relative="1" as="geometry">
            <mxPoint x="140" y="109.57999999999993" as="sourcePoint" />
            <mxPoint x="199.9999999999868" y="110.00000000000011" as="targetPoint" />
          </mxGeometry>
        </mxCell>
        <mxCell id="828h7A7VIKrgQUYBRV7N-37" value="" style="endArrow=classic;html=1;rounded=0;entryX=0;entryY=0.5;entryDx=0;entryDy=0;" edge="1" parent="828h7A7VIKrgQUYBRV7N-68">
          <mxGeometry width="50" height="50" relative="1" as="geometry">
            <mxPoint x="140" y="49.1699999999999" as="sourcePoint" />
            <mxPoint x="199.9999999999868" y="49.59000000000009" as="targetPoint" />
          </mxGeometry>
        </mxCell>
        <mxCell id="828h7A7VIKrgQUYBRV7N-39" value="" style="endArrow=classic;html=1;rounded=0;" edge="1" parent="828h7A7VIKrgQUYBRV7N-68">
          <mxGeometry width="50" height="50" relative="1" as="geometry">
            <mxPoint x="260" y="50" as="sourcePoint" />
            <mxPoint x="320" y="50" as="targetPoint" />
          </mxGeometry>
        </mxCell>
        <mxCell id="828h7A7VIKrgQUYBRV7N-40" value="" style="endArrow=classic;html=1;rounded=0;" edge="1" parent="828h7A7VIKrgQUYBRV7N-68">
          <mxGeometry width="50" height="50" relative="1" as="geometry">
            <mxPoint x="260" y="110" as="sourcePoint" />
            <mxPoint x="320" y="110" as="targetPoint" />
          </mxGeometry>
        </mxCell>
        <mxCell id="828h7A7VIKrgQUYBRV7N-41" value="" style="endArrow=classic;html=1;rounded=0;" edge="1" parent="828h7A7VIKrgQUYBRV7N-68">
          <mxGeometry width="50" height="50" relative="1" as="geometry">
            <mxPoint x="260" y="170" as="sourcePoint" />
            <mxPoint x="320" y="170" as="targetPoint" />
          </mxGeometry>
        </mxCell>
        <mxCell id="828h7A7VIKrgQUYBRV7N-42" value="" style="endArrow=classic;html=1;rounded=0;" edge="1" parent="828h7A7VIKrgQUYBRV7N-68">
          <mxGeometry width="50" height="50" relative="1" as="geometry">
            <mxPoint x="260" y="230" as="sourcePoint" />
            <mxPoint x="320" y="230" as="targetPoint" />
          </mxGeometry>
        </mxCell>
        <mxCell id="828h7A7VIKrgQUYBRV7N-43" value="" style="endArrow=classic;html=1;rounded=0;" edge="1" parent="828h7A7VIKrgQUYBRV7N-68">
          <mxGeometry width="50" height="50" relative="1" as="geometry">
            <mxPoint x="260" y="290" as="sourcePoint" />
            <mxPoint x="320" y="290" as="targetPoint" />
          </mxGeometry>
        </mxCell>
        <mxCell id="828h7A7VIKrgQUYBRV7N-45" value="" style="endArrow=none;html=1;rounded=0;" edge="1" parent="828h7A7VIKrgQUYBRV7N-68">
          <mxGeometry width="50" height="50" relative="1" as="geometry">
            <mxPoint x="360" y="170" as="sourcePoint" />
            <mxPoint x="380" y="130" as="targetPoint" />
          </mxGeometry>
        </mxCell>
        <mxCell id="828h7A7VIKrgQUYBRV7N-46" value="" style="endArrow=classic;html=1;rounded=0;" edge="1" parent="828h7A7VIKrgQUYBRV7N-68">
          <mxGeometry width="50" height="50" relative="1" as="geometry">
            <mxPoint x="320" y="150" as="sourcePoint" />
            <mxPoint x="410" y="150" as="targetPoint" />
          </mxGeometry>
        </mxCell>
        <mxCell id="828h7A7VIKrgQUYBRV7N-47" value="" style="endArrow=none;html=1;rounded=0;" edge="1" parent="828h7A7VIKrgQUYBRV7N-68">
          <mxGeometry width="50" height="50" relative="1" as="geometry">
            <mxPoint x="320" as="sourcePoint" />
            <mxPoint x="320" y="530" as="targetPoint" />
          </mxGeometry>
        </mxCell>
        <mxCell id="828h7A7VIKrgQUYBRV7N-49" value="" style="shape=cube;whiteSpace=wrap;html=1;boundedLbl=1;backgroundOutline=1;darkOpacity=0.05;darkOpacity2=0.1;" vertex="1" parent="828h7A7VIKrgQUYBRV7N-68">
          <mxGeometry x="70" y="440" width="70" height="80" as="geometry" />
        </mxCell>
        <mxCell id="828h7A7VIKrgQUYBRV7N-48" value="" style="shape=cube;whiteSpace=wrap;html=1;boundedLbl=1;backgroundOutline=1;darkOpacity=0.05;darkOpacity2=0.1;" vertex="1" parent="828h7A7VIKrgQUYBRV7N-68">
          <mxGeometry x="70" y="380" width="70" height="80" as="geometry" />
        </mxCell>
        <mxCell id="828h7A7VIKrgQUYBRV7N-50" value="" style="endArrow=none;dashed=1;html=1;dashPattern=1 3;strokeWidth=2;rounded=0;" edge="1" parent="828h7A7VIKrgQUYBRV7N-68">
          <mxGeometry width="50" height="50" relative="1" as="geometry">
            <mxPoint x="105" y="360" as="sourcePoint" />
            <mxPoint x="104.88" y="340" as="targetPoint" />
            <Array as="points">
              <mxPoint x="104.88" y="350" />
            </Array>
          </mxGeometry>
        </mxCell>
        <mxCell id="828h7A7VIKrgQUYBRV7N-51" value="" style="endArrow=classic;html=1;rounded=0;entryX=0.005;entryY=0.477;entryDx=0;entryDy=0;entryPerimeter=0;" edge="1" parent="828h7A7VIKrgQUYBRV7N-68" target="828h7A7VIKrgQUYBRV7N-48">
          <mxGeometry width="50" height="50" relative="1" as="geometry">
            <mxPoint y="150" as="sourcePoint" />
            <mxPoint x="-20" y="320" as="targetPoint" />
          </mxGeometry>
        </mxCell>
        <mxCell id="828h7A7VIKrgQUYBRV7N-52" value="" style="endArrow=none;html=1;rounded=0;" edge="1" parent="828h7A7VIKrgQUYBRV7N-68">
          <mxGeometry width="50" height="50" relative="1" as="geometry">
            <mxPoint x="30" y="320" as="sourcePoint" />
            <mxPoint x="60" y="300" as="targetPoint" />
          </mxGeometry>
        </mxCell>
        <mxCell id="828h7A7VIKrgQUYBRV7N-53" value="" style="endArrow=classic;html=1;rounded=0;entryX=-0.003;entryY=0.448;entryDx=0;entryDy=0;entryPerimeter=0;" edge="1" parent="828h7A7VIKrgQUYBRV7N-68" target="828h7A7VIKrgQUYBRV7N-49">
          <mxGeometry width="50" height="50" relative="1" as="geometry">
            <mxPoint y="150" as="sourcePoint" />
            <mxPoint x="-30" y="390" as="targetPoint" />
          </mxGeometry>
        </mxCell>
        <mxCell id="828h7A7VIKrgQUYBRV7N-54" value="" style="endArrow=none;html=1;rounded=0;" edge="1" parent="828h7A7VIKrgQUYBRV7N-68">
          <mxGeometry width="50" height="50" relative="1" as="geometry">
            <mxPoint x="30" y="380" as="sourcePoint" />
            <mxPoint x="60" y="360" as="targetPoint" />
          </mxGeometry>
        </mxCell>
        <mxCell id="828h7A7VIKrgQUYBRV7N-55" value="17" style="text;html=1;align=center;verticalAlign=middle;resizable=0;points=[];autosize=1;strokeColor=none;fillColor=none;" vertex="1" parent="828h7A7VIKrgQUYBRV7N-68">
          <mxGeometry x="30" y="275" width="40" height="30" as="geometry" />
        </mxCell>
        <mxCell id="828h7A7VIKrgQUYBRV7N-56" value="17" style="text;html=1;align=center;verticalAlign=middle;resizable=0;points=[];autosize=1;strokeColor=none;fillColor=none;" vertex="1" parent="828h7A7VIKrgQUYBRV7N-68">
          <mxGeometry x="10" y="350" width="40" height="30" as="geometry" />
        </mxCell>
        <mxCell id="828h7A7VIKrgQUYBRV7N-57" value="ReLu()" style="ellipse;whiteSpace=wrap;html=1;aspect=fixed;" vertex="1" parent="828h7A7VIKrgQUYBRV7N-68">
          <mxGeometry x="200" y="400" width="60" height="60" as="geometry" />
        </mxCell>
        <mxCell id="828h7A7VIKrgQUYBRV7N-58" value="ReLu()" style="ellipse;whiteSpace=wrap;html=1;aspect=fixed;" vertex="1" parent="828h7A7VIKrgQUYBRV7N-68">
          <mxGeometry x="200" y="460" width="60" height="60" as="geometry" />
        </mxCell>
        <mxCell id="828h7A7VIKrgQUYBRV7N-60" value="" style="endArrow=classic;html=1;rounded=0;entryX=0;entryY=0.5;entryDx=0;entryDy=0;" edge="1" parent="828h7A7VIKrgQUYBRV7N-68">
          <mxGeometry width="50" height="50" relative="1" as="geometry">
            <mxPoint x="140" y="429.76000000000005" as="sourcePoint" />
            <mxPoint x="199.99999999999613" y="430.18" as="targetPoint" />
          </mxGeometry>
        </mxCell>
        <mxCell id="828h7A7VIKrgQUYBRV7N-61" value="" style="endArrow=classic;html=1;rounded=0;entryX=0;entryY=0.5;entryDx=0;entryDy=0;" edge="1" parent="828h7A7VIKrgQUYBRV7N-68">
          <mxGeometry width="50" height="50" relative="1" as="geometry">
            <mxPoint x="140" y="489.76" as="sourcePoint" />
            <mxPoint x="199.99999999999613" y="490.18000000000006" as="targetPoint" />
          </mxGeometry>
        </mxCell>
        <mxCell id="828h7A7VIKrgQUYBRV7N-62" value="" style="endArrow=classic;html=1;rounded=0;entryX=0;entryY=0.5;entryDx=0;entryDy=0;" edge="1" parent="828h7A7VIKrgQUYBRV7N-68">
          <mxGeometry width="50" height="50" relative="1" as="geometry">
            <mxPoint x="260" y="429.71" as="sourcePoint" />
            <mxPoint x="319.9999999999959" y="430.13000000000005" as="targetPoint" />
          </mxGeometry>
        </mxCell>
        <mxCell id="828h7A7VIKrgQUYBRV7N-63" value="" style="endArrow=classic;html=1;rounded=0;" edge="1" parent="828h7A7VIKrgQUYBRV7N-68">
          <mxGeometry width="50" height="50" relative="1" as="geometry">
            <mxPoint x="260" y="489.71000000000004" as="sourcePoint" />
            <mxPoint x="320" y="489.71000000000004" as="targetPoint" />
          </mxGeometry>
        </mxCell>
        <mxCell id="828h7A7VIKrgQUYBRV7N-325" value="" style="endArrow=none;dashed=1;html=1;rounded=0;exitX=0;exitY=0;exitDx=439.99999999999994;exitDy=50;exitPerimeter=0;" edge="1" parent="828h7A7VIKrgQUYBRV7N-68" source="828h7A7VIKrgQUYBRV7N-321">
          <mxGeometry width="50" height="50" relative="1" as="geometry">
            <mxPoint x="90" y="510" as="sourcePoint" />
            <mxPoint x="140" y="460" as="targetPoint" />
          </mxGeometry>
        </mxCell>
        <mxCell id="828h7A7VIKrgQUYBRV7N-12" value="" style="endArrow=classic;html=1;rounded=0;entryX=0;entryY=0.488;entryDx=0;entryDy=0;entryPerimeter=0;exitX=0.002;exitY=0.3;exitDx=0;exitDy=0;exitPerimeter=0;" edge="1" parent="828h7A7VIKrgQUYBRV7N-69" source="828h7A7VIKrgQUYBRV7N-64" target="828h7A7VIKrgQUYBRV7N-7">
          <mxGeometry width="50" height="50" relative="1" as="geometry">
            <mxPoint x="160" y="240" as="sourcePoint" />
            <mxPoint x="246.01000000000022" y="258" as="targetPoint" />
          </mxGeometry>
        </mxCell>
        <mxCell id="828h7A7VIKrgQUYBRV7N-11" value="" style="endArrow=classic;html=1;rounded=0;entryX=-0.057;entryY=0.475;entryDx=0;entryDy=0;entryPerimeter=0;exitX=0.003;exitY=0.3;exitDx=0;exitDy=0;exitPerimeter=0;" edge="1" parent="828h7A7VIKrgQUYBRV7N-69" source="828h7A7VIKrgQUYBRV7N-64" target="828h7A7VIKrgQUYBRV7N-6">
          <mxGeometry width="50" height="50" relative="1" as="geometry">
            <mxPoint x="180" y="210" as="sourcePoint" />
            <mxPoint x="250" y="144" as="targetPoint" />
          </mxGeometry>
        </mxCell>
        <mxCell id="828h7A7VIKrgQUYBRV7N-10" value="" style="endArrow=classic;html=1;rounded=0;entryX=0;entryY=0;entryDx=0;entryDy=30;entryPerimeter=0;exitX=0;exitY=0.3;exitDx=0;exitDy=0;exitPerimeter=0;" edge="1" parent="828h7A7VIKrgQUYBRV7N-69" source="828h7A7VIKrgQUYBRV7N-64" target="828h7A7VIKrgQUYBRV7N-5">
          <mxGeometry width="50" height="50" relative="1" as="geometry">
            <mxPoint x="170" y="240" as="sourcePoint" />
            <mxPoint x="250" y="144" as="targetPoint" />
          </mxGeometry>
        </mxCell>
        <mxCell id="828h7A7VIKrgQUYBRV7N-324" value="" style="endArrow=none;dashed=1;html=1;rounded=0;exitX=0;exitY=0;exitDx=0;exitDy=0;exitPerimeter=0;" edge="1" parent="828h7A7VIKrgQUYBRV7N-69" source="828h7A7VIKrgQUYBRV7N-321">
          <mxGeometry width="50" height="50" relative="1" as="geometry">
            <mxPoint x="60" y="520" as="sourcePoint" />
            <mxPoint x="110" y="470" as="targetPoint" />
          </mxGeometry>
        </mxCell>
        <mxCell id="828h7A7VIKrgQUYBRV7N-500" value="" style="endArrow=none;html=1;rounded=0;fontSize=50;" edge="1" parent="828h7A7VIKrgQUYBRV7N-69">
          <mxGeometry width="50" height="50" relative="1" as="geometry">
            <mxPoint x="-30" y="200" as="sourcePoint" />
            <mxPoint x="-10" y="160" as="targetPoint" />
          </mxGeometry>
        </mxCell>
        <mxCell id="828h7A7VIKrgQUYBRV7N-326" value="" style="endArrow=none;dashed=1;html=1;rounded=0;entryX=0;entryY=0;entryDx=20;entryDy=80;entryPerimeter=0;exitX=0.128;exitY=0.139;exitDx=0;exitDy=0;exitPerimeter=0;" edge="1" parent="1" source="828h7A7VIKrgQUYBRV7N-321" target="828h7A7VIKrgQUYBRV7N-48">
          <mxGeometry width="50" height="50" relative="1" as="geometry">
            <mxPoint x="-352" y="624.5" as="sourcePoint" />
            <mxPoint x="-242" y="524.5" as="targetPoint" />
          </mxGeometry>
        </mxCell>
        <mxCell id="828h7A7VIKrgQUYBRV7N-414" value="" style="group" vertex="1" connectable="0" parent="1">
          <mxGeometry x="1708" y="54.5" width="470" height="738" as="geometry" />
        </mxCell>
        <mxCell id="828h7A7VIKrgQUYBRV7N-415" value="" style="group" vertex="1" connectable="0" parent="828h7A7VIKrgQUYBRV7N-414">
          <mxGeometry width="470" height="738" as="geometry" />
        </mxCell>
        <mxCell id="828h7A7VIKrgQUYBRV7N-416" value="" style="group" vertex="1" connectable="0" parent="828h7A7VIKrgQUYBRV7N-415">
          <mxGeometry x="34" y="-10" width="436" height="600" as="geometry" />
        </mxCell>
        <mxCell id="828h7A7VIKrgQUYBRV7N-417" value="" style="rounded=0;whiteSpace=wrap;html=1;" vertex="1" parent="828h7A7VIKrgQUYBRV7N-416">
          <mxGeometry y="-20" width="230" height="600" as="geometry" />
        </mxCell>
        <mxCell id="828h7A7VIKrgQUYBRV7N-418" value="" style="group" vertex="1" connectable="0" parent="828h7A7VIKrgQUYBRV7N-416">
          <mxGeometry y="30" width="436" height="530" as="geometry" />
        </mxCell>
        <mxCell id="828h7A7VIKrgQUYBRV7N-501" value="&lt;font style=&quot;font-size: 40px;&quot;&gt;&lt;b&gt;Y*(tk)&lt;/b&gt;&lt;/font&gt;" style="shape=cube;whiteSpace=wrap;html=1;boundedLbl=1;backgroundOutline=1;darkOpacity=0.05;darkOpacity2=0.1;fillColor=#6a00ff;strokeColor=#3700CC;fontColor=#ffffff;" vertex="1" parent="828h7A7VIKrgQUYBRV7N-418">
          <mxGeometry x="296" y="100" width="120" height="80" as="geometry" />
        </mxCell>
        <mxCell id="828h7A7VIKrgQUYBRV7N-419" value="" style="shape=cube;whiteSpace=wrap;html=1;boundedLbl=1;backgroundOutline=1;darkOpacity=0.05;darkOpacity2=0.1;" vertex="1" parent="828h7A7VIKrgQUYBRV7N-418">
          <mxGeometry x="70" y="230" width="70" height="80" as="geometry" />
        </mxCell>
        <mxCell id="828h7A7VIKrgQUYBRV7N-420" value="" style="shape=cube;whiteSpace=wrap;html=1;boundedLbl=1;backgroundOutline=1;darkOpacity=0.05;darkOpacity2=0.1;" vertex="1" parent="828h7A7VIKrgQUYBRV7N-418">
          <mxGeometry x="70" y="170" width="70" height="80" as="geometry" />
        </mxCell>
        <mxCell id="828h7A7VIKrgQUYBRV7N-421" value="" style="shape=cube;whiteSpace=wrap;html=1;boundedLbl=1;backgroundOutline=1;darkOpacity=0.05;darkOpacity2=0.1;" vertex="1" parent="828h7A7VIKrgQUYBRV7N-418">
          <mxGeometry x="70" y="110" width="70" height="80" as="geometry" />
        </mxCell>
        <mxCell id="828h7A7VIKrgQUYBRV7N-423" value="" style="shape=cube;whiteSpace=wrap;html=1;boundedLbl=1;backgroundOutline=1;darkOpacity=0.05;darkOpacity2=0.1;" vertex="1" parent="828h7A7VIKrgQUYBRV7N-418">
          <mxGeometry x="70" y="50" width="70" height="80" as="geometry" />
        </mxCell>
        <mxCell id="828h7A7VIKrgQUYBRV7N-424" value="" style="shape=cube;whiteSpace=wrap;html=1;boundedLbl=1;backgroundOutline=1;darkOpacity=0.05;darkOpacity2=0.1;" vertex="1" parent="828h7A7VIKrgQUYBRV7N-418">
          <mxGeometry x="70" y="-10" width="70" height="80" as="geometry" />
        </mxCell>
        <mxCell id="828h7A7VIKrgQUYBRV7N-425" value="" style="endArrow=classic;html=1;rounded=0;entryX=0;entryY=0.375;entryDx=0;entryDy=0;entryPerimeter=0;" edge="1" parent="828h7A7VIKrgQUYBRV7N-418" target="828h7A7VIKrgQUYBRV7N-424">
          <mxGeometry width="50" height="50" relative="1" as="geometry">
            <mxPoint y="140" as="sourcePoint" />
            <mxPoint x="60" y="30" as="targetPoint" />
          </mxGeometry>
        </mxCell>
        <mxCell id="828h7A7VIKrgQUYBRV7N-426" value="" style="endArrow=classic;html=1;rounded=0;entryX=0;entryY=0;entryDx=0;entryDy=30;entryPerimeter=0;" edge="1" parent="828h7A7VIKrgQUYBRV7N-418" target="828h7A7VIKrgQUYBRV7N-423">
          <mxGeometry width="50" height="50" relative="1" as="geometry">
            <mxPoint y="140" as="sourcePoint" />
            <mxPoint x="70" y="40" as="targetPoint" />
          </mxGeometry>
        </mxCell>
        <mxCell id="828h7A7VIKrgQUYBRV7N-431" value="" style="endArrow=none;html=1;rounded=0;" edge="1" parent="828h7A7VIKrgQUYBRV7N-418">
          <mxGeometry width="50" height="50" relative="1" as="geometry">
            <mxPoint x="45" y="85" as="sourcePoint" />
            <mxPoint x="35" y="65" as="targetPoint" />
          </mxGeometry>
        </mxCell>
        <mxCell id="828h7A7VIKrgQUYBRV7N-432" value="" style="endArrow=none;html=1;rounded=0;" edge="1" parent="828h7A7VIKrgQUYBRV7N-418">
          <mxGeometry width="50" height="50" relative="1" as="geometry">
            <mxPoint x="40" y="120" as="sourcePoint" />
            <mxPoint x="30" y="100" as="targetPoint" />
          </mxGeometry>
        </mxCell>
        <mxCell id="828h7A7VIKrgQUYBRV7N-433" value="" style="endArrow=none;html=1;rounded=0;" edge="1" parent="828h7A7VIKrgQUYBRV7N-418">
          <mxGeometry width="50" height="50" relative="1" as="geometry">
            <mxPoint x="39.670000000000016" y="150" as="sourcePoint" />
            <mxPoint x="39.670000000000016" y="130" as="targetPoint" />
          </mxGeometry>
        </mxCell>
        <mxCell id="828h7A7VIKrgQUYBRV7N-434" value="" style="endArrow=none;html=1;rounded=0;" edge="1" parent="828h7A7VIKrgQUYBRV7N-418">
          <mxGeometry width="50" height="50" relative="1" as="geometry">
            <mxPoint x="35" y="190" as="sourcePoint" />
            <mxPoint x="45" y="170" as="targetPoint" />
            <Array as="points">
              <mxPoint x="45" y="170" />
            </Array>
          </mxGeometry>
        </mxCell>
        <mxCell id="828h7A7VIKrgQUYBRV7N-435" value="" style="endArrow=none;html=1;rounded=0;" edge="1" parent="828h7A7VIKrgQUYBRV7N-418">
          <mxGeometry width="50" height="50" relative="1" as="geometry">
            <mxPoint x="40" y="230" as="sourcePoint" />
            <mxPoint x="60" y="210" as="targetPoint" />
          </mxGeometry>
        </mxCell>
        <mxCell id="828h7A7VIKrgQUYBRV7N-441" value="" style="endArrow=classic;html=1;rounded=0;entryX=0;entryY=0.5;entryDx=0;entryDy=0;" edge="1" parent="828h7A7VIKrgQUYBRV7N-418">
          <mxGeometry width="50" height="50" relative="1" as="geometry">
            <mxPoint x="140" y="279.58000000000004" as="sourcePoint" />
            <mxPoint x="200" y="280" as="targetPoint" />
          </mxGeometry>
        </mxCell>
        <mxCell id="828h7A7VIKrgQUYBRV7N-442" value="" style="endArrow=classic;html=1;rounded=0;entryX=0;entryY=0.5;entryDx=0;entryDy=0;" edge="1" parent="828h7A7VIKrgQUYBRV7N-418">
          <mxGeometry width="50" height="50" relative="1" as="geometry">
            <mxPoint x="140" y="219.16999999999996" as="sourcePoint" />
            <mxPoint x="199.9999999999868" y="219.59000000000015" as="targetPoint" />
          </mxGeometry>
        </mxCell>
        <mxCell id="828h7A7VIKrgQUYBRV7N-443" value="" style="endArrow=classic;html=1;rounded=0;entryX=0;entryY=0.5;entryDx=0;entryDy=0;" edge="1" parent="828h7A7VIKrgQUYBRV7N-418">
          <mxGeometry width="50" height="50" relative="1" as="geometry">
            <mxPoint x="140" y="159.57999999999993" as="sourcePoint" />
            <mxPoint x="199.9999999999868" y="160.0000000000001" as="targetPoint" />
          </mxGeometry>
        </mxCell>
        <mxCell id="828h7A7VIKrgQUYBRV7N-444" value="" style="endArrow=classic;html=1;rounded=0;entryX=0;entryY=0.5;entryDx=0;entryDy=0;" edge="1" parent="828h7A7VIKrgQUYBRV7N-418">
          <mxGeometry width="50" height="50" relative="1" as="geometry">
            <mxPoint x="140" y="99.57999999999993" as="sourcePoint" />
            <mxPoint x="199.9999999999868" y="100.00000000000011" as="targetPoint" />
          </mxGeometry>
        </mxCell>
        <mxCell id="828h7A7VIKrgQUYBRV7N-445" value="" style="endArrow=classic;html=1;rounded=0;entryX=0;entryY=0.5;entryDx=0;entryDy=0;" edge="1" parent="828h7A7VIKrgQUYBRV7N-418">
          <mxGeometry width="50" height="50" relative="1" as="geometry">
            <mxPoint x="140" y="39.1699999999999" as="sourcePoint" />
            <mxPoint x="199.9999999999868" y="39.59000000000009" as="targetPoint" />
          </mxGeometry>
        </mxCell>
        <mxCell id="828h7A7VIKrgQUYBRV7N-451" value="" style="endArrow=none;html=1;rounded=0;" edge="1" parent="828h7A7VIKrgQUYBRV7N-418">
          <mxGeometry width="50" height="50" relative="1" as="geometry">
            <mxPoint x="256" y="160" as="sourcePoint" />
            <mxPoint x="276" y="120" as="targetPoint" />
          </mxGeometry>
        </mxCell>
        <mxCell id="828h7A7VIKrgQUYBRV7N-453" value="" style="shape=cube;whiteSpace=wrap;html=1;boundedLbl=1;backgroundOutline=1;darkOpacity=0.05;darkOpacity2=0.1;" vertex="1" parent="828h7A7VIKrgQUYBRV7N-418">
          <mxGeometry x="70" y="430" width="70" height="80" as="geometry" />
        </mxCell>
        <mxCell id="828h7A7VIKrgQUYBRV7N-454" value="" style="shape=cube;whiteSpace=wrap;html=1;boundedLbl=1;backgroundOutline=1;darkOpacity=0.05;darkOpacity2=0.1;" vertex="1" parent="828h7A7VIKrgQUYBRV7N-418">
          <mxGeometry x="70" y="370" width="70" height="80" as="geometry" />
        </mxCell>
        <mxCell id="828h7A7VIKrgQUYBRV7N-455" value="" style="endArrow=none;dashed=1;html=1;dashPattern=1 3;strokeWidth=2;rounded=0;" edge="1" parent="828h7A7VIKrgQUYBRV7N-418">
          <mxGeometry width="50" height="50" relative="1" as="geometry">
            <mxPoint x="105" y="350" as="sourcePoint" />
            <mxPoint x="104.88" y="330" as="targetPoint" />
            <Array as="points">
              <mxPoint x="104.88" y="340" />
            </Array>
          </mxGeometry>
        </mxCell>
        <mxCell id="828h7A7VIKrgQUYBRV7N-456" value="" style="endArrow=classic;html=1;rounded=0;entryX=0.005;entryY=0.477;entryDx=0;entryDy=0;entryPerimeter=0;" edge="1" parent="828h7A7VIKrgQUYBRV7N-418" target="828h7A7VIKrgQUYBRV7N-454">
          <mxGeometry width="50" height="50" relative="1" as="geometry">
            <mxPoint y="140" as="sourcePoint" />
            <mxPoint x="-20" y="310" as="targetPoint" />
          </mxGeometry>
        </mxCell>
        <mxCell id="828h7A7VIKrgQUYBRV7N-457" value="" style="endArrow=none;html=1;rounded=0;" edge="1" parent="828h7A7VIKrgQUYBRV7N-418">
          <mxGeometry width="50" height="50" relative="1" as="geometry">
            <mxPoint x="30" y="310" as="sourcePoint" />
            <mxPoint x="60" y="290" as="targetPoint" />
          </mxGeometry>
        </mxCell>
        <mxCell id="828h7A7VIKrgQUYBRV7N-458" value="" style="endArrow=classic;html=1;rounded=0;entryX=-0.003;entryY=0.448;entryDx=0;entryDy=0;entryPerimeter=0;" edge="1" parent="828h7A7VIKrgQUYBRV7N-418" target="828h7A7VIKrgQUYBRV7N-453">
          <mxGeometry width="50" height="50" relative="1" as="geometry">
            <mxPoint y="140" as="sourcePoint" />
            <mxPoint x="-30" y="380" as="targetPoint" />
          </mxGeometry>
        </mxCell>
        <mxCell id="828h7A7VIKrgQUYBRV7N-459" value="" style="endArrow=none;html=1;rounded=0;" edge="1" parent="828h7A7VIKrgQUYBRV7N-418">
          <mxGeometry width="50" height="50" relative="1" as="geometry">
            <mxPoint x="30" y="370" as="sourcePoint" />
            <mxPoint x="60" y="350" as="targetPoint" />
          </mxGeometry>
        </mxCell>
        <mxCell id="828h7A7VIKrgQUYBRV7N-464" value="" style="endArrow=classic;html=1;rounded=0;entryX=0;entryY=0.5;entryDx=0;entryDy=0;" edge="1" parent="828h7A7VIKrgQUYBRV7N-418">
          <mxGeometry width="50" height="50" relative="1" as="geometry">
            <mxPoint x="140" y="419.76000000000005" as="sourcePoint" />
            <mxPoint x="199.99999999999613" y="420.18" as="targetPoint" />
          </mxGeometry>
        </mxCell>
        <mxCell id="828h7A7VIKrgQUYBRV7N-465" value="" style="endArrow=classic;html=1;rounded=0;entryX=0;entryY=0.5;entryDx=0;entryDy=0;" edge="1" parent="828h7A7VIKrgQUYBRV7N-418">
          <mxGeometry width="50" height="50" relative="1" as="geometry">
            <mxPoint x="140" y="479.76" as="sourcePoint" />
            <mxPoint x="199.99999999999613" y="480.18000000000006" as="targetPoint" />
          </mxGeometry>
        </mxCell>
        <mxCell id="828h7A7VIKrgQUYBRV7N-468" value="" style="endArrow=classic;html=1;rounded=0;" edge="1" parent="828h7A7VIKrgQUYBRV7N-418">
          <mxGeometry width="50" height="50" relative="1" as="geometry">
            <mxPoint x="206" y="140" as="sourcePoint" />
            <mxPoint x="306" y="140" as="targetPoint" />
          </mxGeometry>
        </mxCell>
        <mxCell id="828h7A7VIKrgQUYBRV7N-517" value="4" style="text;html=1;align=center;verticalAlign=middle;resizable=0;points=[];autosize=1;strokeColor=none;fillColor=none;fontSize=12;fontColor=#1D3557;" vertex="1" parent="828h7A7VIKrgQUYBRV7N-418">
          <mxGeometry x="246" y="110" width="30" height="30" as="geometry" />
        </mxCell>
        <mxCell id="828h7A7VIKrgQUYBRV7N-469" value="" style="endArrow=classic;html=1;rounded=0;entryX=0;entryY=0.488;entryDx=0;entryDy=0;entryPerimeter=0;exitX=-0.001;exitY=0.312;exitDx=0;exitDy=0;exitPerimeter=0;" edge="1" parent="828h7A7VIKrgQUYBRV7N-416" source="828h7A7VIKrgQUYBRV7N-417" target="828h7A7VIKrgQUYBRV7N-419">
          <mxGeometry width="50" height="50" relative="1" as="geometry">
            <mxPoint x="120" y="230" as="sourcePoint" />
            <mxPoint x="206.01000000000022" y="248" as="targetPoint" />
          </mxGeometry>
        </mxCell>
        <mxCell id="828h7A7VIKrgQUYBRV7N-470" value="" style="endArrow=classic;html=1;rounded=0;entryX=-0.057;entryY=0.475;entryDx=0;entryDy=0;entryPerimeter=0;exitX=0.001;exitY=0.313;exitDx=0;exitDy=0;exitPerimeter=0;" edge="1" parent="828h7A7VIKrgQUYBRV7N-416" source="828h7A7VIKrgQUYBRV7N-417" target="828h7A7VIKrgQUYBRV7N-420">
          <mxGeometry width="50" height="50" relative="1" as="geometry">
            <mxPoint x="-14" y="140" as="sourcePoint" />
            <mxPoint x="210" y="134" as="targetPoint" />
          </mxGeometry>
        </mxCell>
        <mxCell id="828h7A7VIKrgQUYBRV7N-471" value="" style="endArrow=classic;html=1;rounded=0;entryX=0;entryY=0;entryDx=0;entryDy=30;entryPerimeter=0;" edge="1" parent="828h7A7VIKrgQUYBRV7N-416" target="828h7A7VIKrgQUYBRV7N-421">
          <mxGeometry width="50" height="50" relative="1" as="geometry">
            <mxPoint x="-4" y="170" as="sourcePoint" />
            <mxPoint x="210" y="134" as="targetPoint" />
          </mxGeometry>
        </mxCell>
        <mxCell id="828h7A7VIKrgQUYBRV7N-452" value="" style="endArrow=none;html=1;rounded=0;" edge="1" parent="828h7A7VIKrgQUYBRV7N-416">
          <mxGeometry width="50" height="50" relative="1" as="geometry">
            <mxPoint x="204.9" y="20" as="sourcePoint" />
            <mxPoint x="204.9" y="550" as="targetPoint" />
          </mxGeometry>
        </mxCell>
        <mxCell id="828h7A7VIKrgQUYBRV7N-310" value="" style="endArrow=classic;html=1;rounded=0;" edge="1" parent="828h7A7VIKrgQUYBRV7N-415">
          <mxGeometry width="50" height="50" relative="1" as="geometry">
            <mxPoint x="-66" y="159.86" as="sourcePoint" />
            <mxPoint x="34" y="159.86" as="targetPoint" />
          </mxGeometry>
        </mxCell>
        <mxCell id="828h7A7VIKrgQUYBRV7N-523" value="" style="shape=curlyBracket;whiteSpace=wrap;html=1;rounded=1;flipH=1;labelPosition=right;verticalLabelPosition=middle;align=left;verticalAlign=middle;strokeColor=#457B9D;strokeWidth=5;fontSize=50;fontColor=#1D3557;fillColor=#A8DADC;rotation=90;" vertex="1" parent="828h7A7VIKrgQUYBRV7N-415">
          <mxGeometry x="118" y="502" width="62" height="236" as="geometry" />
        </mxCell>
        <mxCell id="828h7A7VIKrgQUYBRV7N-524" value="&lt;b&gt;Output Layer&lt;/b&gt;" style="text;html=1;align=center;verticalAlign=middle;resizable=0;points=[];autosize=1;strokeColor=none;fillColor=none;fontSize=50;fontColor=#1D3557;strokeWidth=5;" vertex="1" parent="828h7A7VIKrgQUYBRV7N-415">
          <mxGeometry y="656" width="336" height="72" as="geometry" />
        </mxCell>
        <mxCell id="828h7A7VIKrgQUYBRV7N-502" value="" style="endArrow=none;dashed=1;html=1;rounded=0;strokeColor=#457B9D;fontSize=12;fontColor=#1D3557;fillColor=#A8DADC;entryX=0;entryY=0.5;entryDx=0;entryDy=0;exitX=0;exitY=0.5;exitDx=0;exitDy=0;" edge="1" parent="1" source="828h7A7VIKrgQUYBRV7N-505" target="828h7A7VIKrgQUYBRV7N-243">
          <mxGeometry width="50" height="50" relative="1" as="geometry">
            <mxPoint x="784" y="926.5" as="sourcePoint" />
            <mxPoint x="428" y="654.5" as="targetPoint" />
          </mxGeometry>
        </mxCell>
        <mxCell id="828h7A7VIKrgQUYBRV7N-504" value="" style="endArrow=none;dashed=1;html=1;rounded=0;strokeColor=#457B9D;fontSize=12;fontColor=#1D3557;fillColor=#A8DADC;exitX=0.997;exitY=0.379;exitDx=0;exitDy=0;exitPerimeter=0;" edge="1" parent="1" source="828h7A7VIKrgQUYBRV7N-505">
          <mxGeometry width="50" height="50" relative="1" as="geometry">
            <mxPoint x="1028" y="774.5" as="sourcePoint" />
            <mxPoint x="938" y="544.5" as="targetPoint" />
          </mxGeometry>
        </mxCell>
        <mxCell id="828h7A7VIKrgQUYBRV7N-512" value="" style="shape=curlyBracket;whiteSpace=wrap;html=1;rounded=1;flipH=1;labelPosition=right;verticalLabelPosition=middle;align=left;verticalAlign=middle;strokeColor=#457B9D;fontSize=12;fontColor=#1D3557;fillColor=#A8DADC;rotation=90;strokeWidth=5;" vertex="1" parent="1">
          <mxGeometry x="935.5" y="-48" width="56" height="1435" as="geometry" />
        </mxCell>
        <mxCell id="828h7A7VIKrgQUYBRV7N-514" value="&lt;b&gt;N layers&lt;br&gt;&lt;/b&gt;" style="text;html=1;align=center;verticalAlign=middle;resizable=0;points=[];autosize=1;strokeColor=none;fillColor=none;fontSize=50;fontColor=#1D3557;" vertex="1" parent="1">
          <mxGeometry x="1068" y="239.5" width="220" height="70" as="geometry" />
        </mxCell>
        <mxCell id="828h7A7VIKrgQUYBRV7N-521" value="&lt;div&gt;&lt;b&gt;Hidden Layers&lt;/b&gt;&lt;/div&gt;" style="text;html=1;align=center;verticalAlign=middle;resizable=0;points=[];autosize=1;strokeColor=none;fillColor=none;fontSize=50;fontColor=#1D3557;" vertex="1" parent="1">
          <mxGeometry x="777.5" y="720.5" width="372" height="72" as="geometry" />
        </mxCell>
        <mxCell id="828h7A7VIKrgQUYBRV7N-522" value="" style="shape=curlyBracket;whiteSpace=wrap;html=1;rounded=1;flipH=1;labelPosition=right;verticalLabelPosition=middle;align=left;verticalAlign=middle;strokeColor=#457B9D;strokeWidth=5;fontSize=50;fontColor=#1D3557;fillColor=#A8DADC;rotation=90;" vertex="1" parent="1">
          <mxGeometry x="-2.5" y="492.5" width="51" height="354" as="geometry" />
        </mxCell>
        <mxCell id="828h7A7VIKrgQUYBRV7N-525" value="" style="group" vertex="1" connectable="0" parent="1">
          <mxGeometry x="-432" y="818.5" width="860" height="360" as="geometry" />
        </mxCell>
        <mxCell id="828h7A7VIKrgQUYBRV7N-331" value="" style="shape=flexArrow;endArrow=classic;html=1;rounded=0;fontSize=50;endWidth=55.5;endSize=13.165;width=28.5;fillColor=#dae8fc;strokeColor=#6c8ebf;" edge="1" parent="828h7A7VIKrgQUYBRV7N-525">
          <mxGeometry width="50" height="50" relative="1" as="geometry">
            <mxPoint x="630" y="190" as="sourcePoint" />
            <mxPoint x="770" y="189.75" as="targetPoint" />
            <Array as="points">
              <mxPoint x="730" y="189.75" />
            </Array>
          </mxGeometry>
        </mxCell>
        <mxCell id="828h7A7VIKrgQUYBRV7N-321" value="&lt;div align=&quot;center&quot;&gt;&lt;sub&gt;&lt;font style=&quot;font-size: 50px;&quot;&gt;&lt;span style=&quot;&quot;&gt;res =&lt;/span&gt;&lt;b style=&quot;&quot;&gt;W &lt;/b&gt;&lt;span style=&quot;&quot;&gt;*&lt;/span&gt;&lt;b style=&quot;&quot;&gt; inp &lt;/b&gt;&lt;span style=&quot;&quot;&gt;+ b&lt;/span&gt;&lt;b style=&quot;&quot;&gt;&amp;nbsp;&lt;/b&gt;&lt;/font&gt;&lt;/sub&gt;&lt;sub&gt;&lt;font style=&quot;font-size: 50px;&quot;&gt;&lt;b&gt; &lt;br&gt;&lt;/b&gt;&lt;/font&gt;&lt;/sub&gt;&lt;/div&gt;" style="shape=cube;whiteSpace=wrap;html=1;boundedLbl=1;backgroundOutline=1;darkOpacity=0.05;darkOpacity2=0.1;size=50;align=center;" vertex="1" parent="828h7A7VIKrgQUYBRV7N-525">
          <mxGeometry x="220" width="440" height="360" as="geometry" />
        </mxCell>
        <mxCell id="828h7A7VIKrgQUYBRV7N-330" value="" style="shape=flexArrow;endArrow=classic;html=1;rounded=0;fontSize=50;endWidth=55.5;endSize=13.165;width=28.5;fillColor=#dae8fc;strokeColor=#6c8ebf;" edge="1" parent="828h7A7VIKrgQUYBRV7N-525">
          <mxGeometry width="50" height="50" relative="1" as="geometry">
            <mxPoint x="100" y="180" as="sourcePoint" />
            <mxPoint x="240" y="179.75" as="targetPoint" />
            <Array as="points">
              <mxPoint x="200" y="179.75" />
            </Array>
          </mxGeometry>
        </mxCell>
        <mxCell id="828h7A7VIKrgQUYBRV7N-334" value="&lt;b&gt;Inp&lt;/b&gt;" style="text;html=1;align=center;verticalAlign=middle;resizable=0;points=[];autosize=1;strokeColor=none;fillColor=none;fontSize=50;" vertex="1" parent="828h7A7VIKrgQUYBRV7N-525">
          <mxGeometry y="145" width="100" height="70" as="geometry" />
        </mxCell>
        <mxCell id="828h7A7VIKrgQUYBRV7N-336" value="res" style="text;html=1;align=center;verticalAlign=middle;resizable=0;points=[];autosize=1;strokeColor=none;fillColor=none;fontSize=50;" vertex="1" parent="828h7A7VIKrgQUYBRV7N-525">
          <mxGeometry x="770" y="160" width="90" height="70" as="geometry" />
        </mxCell>
        <mxCell id="828h7A7VIKrgQUYBRV7N-526" value="" style="group" vertex="1" connectable="0" parent="1">
          <mxGeometry x="748" y="890.5" width="260" height="260" as="geometry" />
        </mxCell>
        <mxCell id="828h7A7VIKrgQUYBRV7N-505" value="" style="ellipse;whiteSpace=wrap;html=1;aspect=fixed;fontSize=12;" vertex="1" parent="828h7A7VIKrgQUYBRV7N-526">
          <mxGeometry width="260" height="260" as="geometry" />
        </mxCell>
        <mxCell id="828h7A7VIKrgQUYBRV7N-506" value="" style="endArrow=classic;html=1;rounded=0;strokeColor=#457B9D;fontSize=12;fontColor=#1D3557;fillColor=#A8DADC;" edge="1" parent="828h7A7VIKrgQUYBRV7N-526">
          <mxGeometry width="50" height="50" relative="1" as="geometry">
            <mxPoint x="130" y="210" as="sourcePoint" />
            <mxPoint x="130" y="50" as="targetPoint" />
          </mxGeometry>
        </mxCell>
        <mxCell id="828h7A7VIKrgQUYBRV7N-507" value="" style="endArrow=classic;html=1;rounded=0;strokeColor=#457B9D;fontSize=12;fontColor=#1D3557;fillColor=#A8DADC;" edge="1" parent="828h7A7VIKrgQUYBRV7N-526">
          <mxGeometry width="50" height="50" relative="1" as="geometry">
            <mxPoint x="39" y="140" as="sourcePoint" />
            <mxPoint x="229" y="140" as="targetPoint" />
          </mxGeometry>
        </mxCell>
        <mxCell id="828h7A7VIKrgQUYBRV7N-508" value="" style="endArrow=none;html=1;rounded=0;strokeColor=#FF6666;fontSize=12;fontColor=#1D3557;fillColor=#A8DADC;" edge="1" parent="828h7A7VIKrgQUYBRV7N-526">
          <mxGeometry width="50" height="50" relative="1" as="geometry">
            <mxPoint x="39" y="140" as="sourcePoint" />
            <mxPoint x="129" y="140" as="targetPoint" />
          </mxGeometry>
        </mxCell>
        <mxCell id="828h7A7VIKrgQUYBRV7N-509" value="Out" style="edgeLabel;html=1;align=center;verticalAlign=middle;resizable=0;points=[];fontSize=12;fontColor=#1D3557;" vertex="1" connectable="0" parent="828h7A7VIKrgQUYBRV7N-508">
          <mxGeometry x="-0.6618" relative="1" as="geometry">
            <mxPoint x="75" y="-100" as="offset" />
          </mxGeometry>
        </mxCell>
        <mxCell id="828h7A7VIKrgQUYBRV7N-510" value="" style="endArrow=none;html=1;rounded=0;strokeColor=#FF6666;fontSize=12;fontColor=#1D3557;fillColor=#A8DADC;" edge="1" parent="828h7A7VIKrgQUYBRV7N-526">
          <mxGeometry width="50" height="50" relative="1" as="geometry">
            <mxPoint x="129" y="140" as="sourcePoint" />
            <mxPoint x="209" y="70" as="targetPoint" />
          </mxGeometry>
        </mxCell>
        <mxCell id="828h7A7VIKrgQUYBRV7N-511" value="In" style="text;html=1;align=center;verticalAlign=middle;resizable=0;points=[];autosize=1;strokeColor=none;fillColor=none;fontSize=12;fontColor=#1D3557;" vertex="1" parent="828h7A7VIKrgQUYBRV7N-526">
          <mxGeometry x="209" y="140" width="30" height="30" as="geometry" />
        </mxCell>
        <mxCell id="828h7A7VIKrgQUYBRV7N-527" value="&lt;b&gt;Input layers&lt;/b&gt;" style="text;html=1;align=center;verticalAlign=middle;resizable=0;points=[];autosize=1;strokeColor=none;fillColor=none;fontSize=50;fontColor=#1D3557;" vertex="1" parent="1">
          <mxGeometry x="-117" y="696.5" width="300" height="72" as="geometry" />
        </mxCell>
      </root>
    </mxGraphModel>
  </diagram>
</mxfile>
